<svg xmlns="http://www.w3.org/2000/svg" width="160" height="54.33" data-name="P14 logo"><defs><clipPath id="a"><path fill="none" d="M0 0h160v54.33H0z" data-name="Rectangle 21"/></clipPath><clipPath id="b"><path fill="none" d="M0 0h23.521v23.422H0z" data-name="Rectangle 14"/></clipPath><clipPath id="c"><path fill="none" d="M0 0h12.472v24.943H0z" data-name="Rectangle 15"/></clipPath><clipPath id="d"><path fill="none" d="M0 0h23.656v13.799H0z" data-name="Rectangle 17"/></clipPath><clipPath id="e"><path fill="none" d="M0 0h16.725v16.647H0z" data-name="Rectangle 18"/></clipPath><clipPath id="f"><path fill="none" d="M0 0h24.641v36.698H0z" data-name="Rectangle 19"/></clipPath><clipPath id="g"><path fill="none" d="M0 0h113.63v13.799H0z" data-name="Rectangle 20"/></clipPath></defs><g clip-path="url(#a)" data-name="Logo P14"><g data-name="Group 3" style="isolation:isolate"><g data-name="Group 2"><g clip-path="url(#b)" data-name="Group 1" transform="translate(46.369 12.818)"><path fill="#bcd646" d="M0 0h23.521v23.422H0z" data-name="Rectangle 13"/></g></g></g><g data-name="Group 6" style="isolation:isolate"><g data-name="Group 5"><g clip-path="url(#c)" data-name="Group 4" transform="translate(0 16.875)"><path fill="#bcd646" d="M12.472 0 0 12.47l12.472 12.474Z" data-name="Path 1"/></g></g></g><g data-name="Group 9" style="isolation:isolate"><g data-name="Group 8"><g clip-path="url(#d)" data-name="Group 7" transform="translate(17.593 40.53)"><path fill="#bcd646" d="M0 0h23.656v13.799H0z" data-name="Rectangle 16"/></g></g></g><g data-name="Group 12" style="isolation:isolate"><g data-name="Group 11"><g clip-path="url(#e)" data-name="Group 10" transform="translate(24.523 19.594)"><path fill="#95cae3" d="M16.728 16.646H-.001L16.728 0Z" data-name="Path 2"/></g></g></g><g data-name="Group 15" style="isolation:isolate"><g data-name="Group 14"><g clip-path="url(#f)" data-name="Group 13" transform="translate(17.592)"><path fill="#bcd646" d="M12.583 0 0 12.583V36.7l24.64-24.644Z" data-name="Path 3"/></g></g></g><g data-name="Group 18" style="isolation:isolate"><g data-name="Group 17"><g clip-path="url(#g)" data-name="Group 16" transform="translate(46.37 40.531)"><path fill="#003d5e" d="M113.622 0H0v13.8l113.63-.015Z" data-name="Path 4"/></g></g></g><path fill="#fff" d="M118.72 47.607c.716 0 1.1-.3 1.1-.907 0-.693-.457-.882-1.129-.882h-.727v1.789Zm2.158-.918c0 1.287-1.007 1.778-2.058 1.778h-.86v2.08h-1.04v-5.59h1.834c1.13 0 2.124.537 2.124 1.733" data-name="Path 5"/><path fill="#fff" d="M123.928 47.498c.716 0 1.1-.245 1.1-.85 0-.692-.459-.826-1.13-.826h-.727v1.676Zm2.159-.86a1.587 1.587 0 0 1-1.354 1.61l1.624 2.3h-1.286l-1.431-2.192h-.471v2.192h-1.039v-5.591h1.834c1.511 0 2.124.614 2.124 1.677" data-name="Path 6"/><path fill="#fff" d="M128.793 48.222h1.442l-.726-2.07Zm1.174-3.3 2.147 5.624h-1.084l-.537-1.464h-1.958l-.512 1.464h-1.018l2-5.624Z" data-name="Path 7"/><path fill="#fff" d="M134.305 47.205h2.583v-2.248h1.04v5.591h-1.04v-2.4h-2.583v2.4h-1.04v-5.591h1.04Z" data-name="Path 8"/><path fill="#fff" d="M140.872 48.222h1.443l-.727-2.07Zm1.174-3.3 2.147 5.624h-1.085l-.536-1.462h-1.956l-.515 1.464h-1.017l2-5.624Z" data-name="Path 9"/><path fill="#fff" d="M148.553 46.03a5 5 0 0 1-1.588.4l-.112-.782a6.5 6.5 0 0 0 1.889-.805h.85v5.7h-1.039Z" data-name="Path 10"/><path fill="#fff" d="m153.759 46.033-1.9 2.554h1.9Zm1.051 3.427v1.09h-1.051v-1.09h-3.137v-.817l2.757-3.717h1.431v3.661h1.129v.873Z" data-name="Path 11"/><path fill="#fff" d="m53.651 50.543-1.45-3.771-.146 3.771h-1.038l.336-5.593h1.182l1.5 3.791 1.428-3.791h1.205l.312 5.593h-1.038l-.146-3.771-1.394 3.771Z" data-name="Path 12"/><path fill="#fff" d="M60.298 44.168h.7l1.428-1.353-.714-.359-1.061.9-1.061-.9-.725.359Zm-.457 3.032h2v.886h-2v1.578h2.555v.884h-3.593v-5.597h3.537v.894h-2.5Z" data-name="Path 13"/><path fill="#fff" d="M64.061 49.437a3.8 3.8 0 0 0 1.573.368c.669 0 1.071-.235 1.071-.771s-.569-.761-1.105-.929c-.992-.279-1.684-.648-1.684-1.645 0-1.062.77-1.621 1.975-1.621a5.1 5.1 0 0 1 1.607.29l-.213.851a4.5 4.5 0 0 0-1.394-.281c-.58 0-.937.191-.937.638 0 .537.58.761 1.071.907.982.313 1.729.771 1.729 1.7 0 1.129-.8 1.71-2.008 1.71a4.5 4.5 0 0 1-1.875-.4Z" data-name="Path 14"/><path fill="#fff" d="M71.302 45.845v4.7h-1.038v-4.7h-1.639v-.894h4.317v.894Z" data-name="Path 15"/><path fill="#fff" d="M73.996 49.437a3.8 3.8 0 0 0 1.574.368c.669 0 1.071-.235 1.071-.771s-.568-.761-1.1-.929c-.993-.279-1.685-.648-1.685-1.645 0-1.062.769-1.621 1.975-1.621a5.1 5.1 0 0 1 1.607.29l-.212.851a4.5 4.5 0 0 0-1.4-.281c-.58 0-.937.191-.937.638 0 .537.58.761 1.071.907.982.313 1.73.771 1.73 1.7 0 1.129-.8 1.71-2.008 1.71a4.5 4.5 0 0 1-1.875-.4Z" data-name="Path 16"/><path fill="#fff" d="m80.328 47.322 2.108-2.372h1.26l-2.219 2.518 2.3 3.076h-1.266l-1.753-2.36-.434.493v1.867h-1.038V44.95h1.038Z" data-name="Path 17"/><path fill="#fff" d="M86.195 48.217h1.44l-.725-2.07Zm.491-4.095 1.808-1.421-.681-.782-1.704 1.643Zm.68.795 2.142 5.627h-1.082l-.535-1.465h-1.953l-.512 1.465h-1.017l2-5.627Z" data-name="Path 18"/><path fill="#fff" d="M95.143 44.167h.7l1.436-1.353-.714-.358-1.06.895-1.061-.895-.725.358Zm1.9 1.813a3.4 3.4 0 0 0-1.395-.257c-1.171 0-1.6.727-1.6 2.014 0 1.2.4 2.046 1.584 2.046a4.4 4.4 0 0 0 1.552-.391l.166.816a4.5 4.5 0 0 1-1.863.447c-1.774 0-2.488-1.353-2.488-2.918 0-1.623.635-2.9 2.543-2.9a4.4 4.4 0 0 1 1.763.324Z" data-name="Path 19"/><path fill="#fff" d="M99.896 48.217h1.441l-.726-2.07Zm.492-4.095 1.807-1.421-.68-.782-1.708 1.643Zm.681.795 2.141 5.627h-1.082l-.539-1.465h-1.952l-.514 1.465h-1.015l2-5.627Z" data-name="Path 20"/><path fill="#fff" d="M104.214 49.437a3.8 3.8 0 0 0 1.573.368c.668 0 1.07-.235 1.07-.771s-.569-.761-1.105-.929c-.992-.279-1.684-.648-1.684-1.645 0-1.062.77-1.621 1.976-1.621a5.1 5.1 0 0 1 1.607.29l-.213.851a4.5 4.5 0 0 0-1.394-.281c-.58 0-.937.191-.937.638 0 .537.581.761 1.071.907.981.313 1.729.771 1.729 1.7 0 1.129-.8 1.71-2.008 1.71a4.5 4.5 0 0 1-1.875-.4Z" data-name="Path 21"/><path fill="#fff" d="M111.455 45.845v4.7h-1.038v-4.7h-1.64v-.894h4.318v.894Z" data-name="Path 22"/></g></svg>