<?xml version="1.0"?>
<svg xmlns="http://www.w3.org/2000/svg" version="1.1" viewBox="0 0 1600 543">
  <g transform="scale(9.99)" stroke-width=".1">
    <g fill="#bcd646">
      <path d="m46.4 12.8h23.5v23.4h-23.5z"/>
      <path d="m12.5 16.9-12.5 12.5 12.5 12.5z"/>
      <path d="m17.6 40.5h23.7v13.8h-23.7z"/>
    </g>
    <path d="m41.3 36.2h-16.7l16.7-16.6z" fill="#95cae3"/>
    <path d="m30.2 0-12.6 12.6v24.1l24.6-24.6z" fill="#bcd646"/>
    <path d="m160 40.5h-114v13.8l114-.015z" fill="#003d5e"/>
    <g fill="#fff">
      <path d="m119 47.6c.716 0 1.1-.3 1.1-.907 0-.693-.457-.882-1.13-.882h-.727v1.79zm2.16-.918c0 1.29-1.01 1.78-2.06 1.78h-.86v2.08h-1.04v-5.59h1.83c1.13 0 2.12.537 2.12 1.73"/>
      <path d="m124 47.5c.716 0 1.1-.245 1.1-.85 0-.692-.459-.826-1.13-.826h-.727v1.68zm2.16-.86a1.59 1.59 0 01-1.35 1.61l1.62 2.3h-1.29l-1.43-2.19h-.471v2.19h-1.04v-5.59h1.83c1.51 0 2.12.614 2.12 1.68"/>
      <path d="m129 48.2h1.44l-.726-2.07zm1.17-3.3 2.15 5.62h-1.08l-.537-1.46h-1.96l-.512 1.46h-1.02l2-5.62z"/>
      <path d="m134 47.2h2.58v-2.25h1.04v5.59h-1.04v-2.4h-2.58v2.4h-1.04v-5.59h1.04z"/>
      <path d="m141 48.2h1.44l-.727-2.07zm1.17-3.3 2.15 5.62h-1.08l-.536-1.46h-1.96l-.515 1.46h-1.02l2-5.62z"/>
      <path d="m149 46a5 5 0 01-1.59.4l-.112-.782a6.5 6.5 0 001.89-.805h.85v5.7h-1.04z"/>
      <path d="m154 46-1.9 2.55h1.9zm1.05 3.43v1.09h-1.05v-1.09h-3.14v-.817l2.76-3.72h1.43v3.66h1.13v.873z"/>
      <path d="m53.7 50.5-1.45-3.77-.146 3.77h-1.04l.336-5.59h1.18l1.5 3.79 1.43-3.79h1.2l.312 5.59h-1.04l-.146-3.77-1.39 3.77z"/>
      <path d="m60.3 44.2h.7l1.43-1.35-.714-.359-1.06.9-1.06-.9-.725.359zm-.457 3.03h2v.886h-2v1.58h2.56v.884h-3.59v-5.6h3.54v.894h-2.5z"/>
      <path d="m64.1 49.4a3.8 3.8 0 001.57.368c.669 0 1.07-.235 1.07-.771s-.569-.761-1.1-.929c-.992-.279-1.68-.648-1.68-1.64 0-1.06.77-1.62 1.98-1.62a5.1 5.1 0 011.61.29l-.213.851a4.5 4.5 0 00-1.39-.281c-.58 0-.937.191-.937.638 0 .537.58.761 1.07.907.982.313 1.73.771 1.73 1.7 0 1.13-.8 1.71-2.01 1.71a4.5 4.5 0 01-1.88-.4z"/>
      <path d="m71.3 45.8v4.7h-1.04v-4.7h-1.64v-.894h4.32v.894z"/>
      <path d="m74 49.4a3.8 3.8 0 001.57.368c.669 0 1.07-.235 1.07-.771s-.568-.761-1.1-.929c-.993-.279-1.68-.648-1.68-1.64 0-1.06.769-1.62 1.98-1.62a5.1 5.1 0 011.61.29l-.212.851a4.5 4.5 0 00-1.4-.281c-.58 0-.937.191-.937.638 0 .537.58.761 1.07.907.982.313 1.73.771 1.73 1.7 0 1.13-.8 1.71-2.01 1.71a4.5 4.5 0 01-1.88-.4z"/>
      <path d="m80.3 47.3 2.11-2.37h1.26l-2.22 2.52 2.3 3.08h-1.27l-1.75-2.36-.434.493v1.87h-1.04v-5.59h1.04z"/>
      <path d="m86.2 48.2h1.44l-.725-2.07zm.491-4.1 1.81-1.42-.681-.782-1.7 1.64zm.68.795 2.14 5.63h-1.08l-.535-1.46h-1.95l-.512 1.46h-1.02l2-5.63z"/>
      <path d="m95.1 44.2h.7l1.44-1.35-.714-.358-1.06.895-1.06-.895-.725.358zm1.9 1.81a3.4 3.4 0 00-1.4-.257c-1.17 0-1.6.727-1.6 2.01 0 1.2.4 2.05 1.58 2.05a4.4 4.4 0 001.55-.391l.166.816a4.5 4.5 0 01-1.86.447c-1.77 0-2.49-1.35-2.49-2.92 0-1.62.635-2.9 2.54-2.9a4.4 4.4 0 011.76.324z"/>
      <path d="m99.9 48.2h1.44l-.726-2.07zm.492-4.1 1.81-1.42-.68-.782-1.71 1.64zm.681.795 2.14 5.63h-1.08l-.539-1.46h-1.95l-.514 1.46h-1.02l2-5.63z"/>
      <path d="m104 49.4a3.8 3.8 0 001.57.368c.668 0 1.07-.235 1.07-.771s-.569-.761-1.1-.929c-.992-.279-1.68-.648-1.68-1.64 0-1.06.77-1.62 1.98-1.62a5.1 5.1 0 011.61.29l-.213.851a4.5 4.5 0 00-1.39-.281c-.58 0-.937.191-.937.638 0 .537.581.761 1.07.907.981.313 1.73.771 1.73 1.7 0 1.13-.8 1.71-2.01 1.71a4.5 4.5 0 01-1.88-.4z"/>
      <path d="m111 45.8v4.7h-1.04v-4.7h-1.64v-.894h4.32v.894z"/>
    </g>
  </g>
</svg>
