<svg xmlns="http://www.w3.org/2000/svg" viewBox="0 0 24 24" fill="currentColor" class="databox"><path d="M23 5.64c-.05-.08-.11-.12-.18-.12H14.4c-.12 0-.22.13-.22.3v2.35c0 .15.1.28.22.28h3.66l-7.9 7.89a.29.29 0 0 0-.07.2c0 .07.03.14.08.2l1.67 1.67c.1.1.3.1.4 0l7.86-7.88v7.72c0 .12.13.22.29.22h2.36c.15 0 .28-.1.28-.22V5.75a.18.18 0 0 0-.05-.12zm-10.7-.11h-11a.2.2 0 0 0-.17.1.2.2 0 0 0-.05.13v12.5c0 .12.12.22.28.22h2.36c.15 0 .28-.1.28-.22v-7.72l4.68 4.67c.08.09.24.07.35-.04l1.67-1.67c.11-.11.13-.27.04-.36L6.06 8.45h6.27c.13 0 .23-.12.23-.28V5.81c0-.16-.1-.28-.23-.28z"/></svg>
