<?xml version="1.0" encoding="UTF-8"?>
<svg xmlns="http://www.w3.org/2000/svg" width="48" height="57" viewBox="0 0 48 57" fill="none">
  <g clip-path="url(#clip0_205_49)">
    <g style="mix-blend-mode:multiply">
      <circle cx="18.5" cy="21.5" r="17.5" fill="#50A9A9"></circle>
    </g>
    <path d="M9.84605 31.8971L9.84604 31.8972L9.27853 37.18L9.27112 37.249L9.3389 37.2342L16.4988 35.6715C17.3181 35.4926 18.125 36.0231 18.3418 36.8373C18.3907 37.021 18.4065 37.2114 18.386 37.3999L17.8819 42.0419C17.7848 42.935 18.4309 43.7375 19.3241 43.8334C19.9779 43.9036 20.4882 44.4043 20.8027 45.063C21.1169 45.7212 21.2295 46.5258 21.0951 47.1821C21.0566 47.3703 21.026 47.5632 21.0037 47.7605L21.0037 47.7607C20.7241 50.3352 21.7516 52.3883 22.8714 53.8111C23.9876 55.2292 25.1981 56.0248 25.3078 56.0921C25.3082 56.0923 25.3085 56.0925 25.3088 56.0927L25.6758 56.3388L25.6975 56.3534L25.7219 56.3438L26.1344 56.1818C26.1345 56.1817 26.1347 56.1817 26.1348 56.1816C29.1464 55.0575 31.7697 52.256 32.1267 48.9688L32.1267 48.9686C32.1473 48.7711 32.1589 48.5762 32.1617 48.3841C32.1713 47.7143 32.454 46.9525 32.9022 46.3772C33.3508 45.8014 33.9567 45.4219 34.6103 45.4937C35.5033 45.5918 36.3066 44.9468 36.4036 44.0536L36.9077 39.4117C36.9282 39.2232 36.9846 39.0406 37.0718 38.8717C37.4583 38.1229 38.3602 37.7781 39.122 38.1287L45.7795 41.1922L45.8425 41.2212L45.8501 41.1522L46.43 35.8708L46.43 35.8706C46.8366 32.0873 45.9287 28.3827 43.9314 25.3025C42.2873 22.7672 40.9248 19.9629 40.5561 16.9712C39.1957 5.93257 32.4453 1.50322 32.0911 1.27828L32.0817 1.27229C31.8414 1.11982 31.5434 1.08935 31.2772 1.19002C30.8798 1.3349 23.3385 4.21276 19.6407 14.6994C18.6382 17.5423 16.7055 19.9887 14.5554 22.1119C11.9433 24.6914 10.2613 28.1147 9.84605 31.8971ZM11.7082 32.0995L11.7082 32.0993C12.1342 28.1251 14.1558 24.594 17.2524 22.2313C17.3946 22.1227 17.5603 22.1291 17.6869 22.2069C17.8141 22.285 17.9013 22.4349 17.8818 22.6149C17.7072 24.2218 17.5843 25.6723 17.5143 27.0046C17.3221 30.6617 14.9542 34.0666 11.4003 34.8783L11.7082 32.0995ZM30.2645 48.7666L30.2645 48.7667C29.9214 51.9827 27.0537 53.6864 25.9271 54.2399C24.9458 53.4574 22.5173 51.1723 22.8659 47.963C23.0054 46.6788 23.5707 45.8046 24.3282 45.2763C25.0869 44.7472 26.0428 44.562 26.9668 44.6655L26.9672 44.6655C27.8919 44.7628 28.7857 45.1489 29.4131 45.8286C30.0395 46.5072 30.404 47.4824 30.2645 48.7666ZM44.5679 35.6684L44.5678 35.6685L44.272 38.4486C40.9752 36.8929 39.3936 33.059 39.9911 29.4459C40.2087 28.1297 40.4 26.6866 40.5746 25.0796C40.5945 24.8965 40.7114 24.768 40.8514 24.7194C40.9907 24.671 41.1539 24.7011 41.2716 24.8401C43.7887 27.8126 45.0051 31.6954 44.5679 35.6684ZM31.6758 9.67841C31.07 9.68115 30.4707 9.61607 29.8796 9.48331C29.2814 9.34895 28.8601 9.01972 28.5953 8.58139C28.3299 8.14198 28.2201 7.59025 28.2516 7.01102C28.3146 5.85126 28.9427 4.59581 29.9889 3.93916C30.3327 3.7233 30.6064 3.56526 30.8419 3.4663C31.0767 3.3676 31.2703 3.32913 31.4546 3.34915C31.6389 3.36916 31.8197 3.44829 32.0279 3.59512C32.2366 3.74232 32.4699 3.95543 32.7594 4.24008C33.6402 5.10603 33.9842 6.46706 33.7967 7.61331C33.7031 8.18579 33.4774 8.70109 33.1238 9.07325C32.7711 9.4445 32.289 9.67562 31.6758 9.67841ZM24.2761 42.4953L21.7313 42.2189C20.6446 42.1009 19.8594 41.1243 19.9774 40.0376C20.0955 38.951 21.072 38.1658 22.1587 38.2838L24.7036 38.5602C25.7902 38.6782 26.5754 39.6548 26.4574 40.7415C26.3394 41.8281 25.3628 42.6133 24.2761 42.4953ZM32.6059 43.4001L30.061 43.1236C28.9744 43.0056 28.1892 42.029 28.3072 40.9424C28.4252 39.8557 29.4018 39.0705 30.4885 39.1885L33.0333 39.4649C34.12 39.583 34.9052 40.5596 34.7872 41.6462C34.6691 42.7329 33.6925 43.5181 32.6059 43.4001ZM32.7324 37.5544L31.6832 37.4404C30.0515 37.2632 28.8724 35.7968 29.0496 34.165L29.2802 32.0423C29.336 31.528 28.9644 31.0659 28.4502 31.01C27.936 30.9542 27.4738 31.3258 27.418 31.84L27.1874 33.9628C27.0102 35.5945 25.5437 36.7736 23.912 36.5964L22.8627 36.4824C21.1972 36.3015 19.7888 35.1135 19.5626 33.4608C19.1732 30.6148 19.2419 27.3821 19.7371 22.8226C20.0886 19.5864 20.789 16.8487 21.6835 14.5403C22.3132 12.9154 23.6545 12.0559 25.2816 11.6498C26.9101 11.2433 28.8193 11.2927 30.5711 11.483C32.3229 11.6733 34.1981 12.035 35.7011 12.7817C37.2028 13.5278 38.3279 14.6553 38.5935 16.3775C38.9705 18.8226 39.0665 21.6458 38.7179 24.8843C38.2227 29.4437 37.5957 32.6157 36.6043 35.3117C36.0286 36.8774 34.398 37.7353 32.7324 37.5544Z" fill="black" stroke="black" stroke-width="0.1"></path>
    <path d="M25.8381 15.8403C23.267 17.9075 22.8562 21.6898 24.9235 24.2608C26.9907 26.8319 30.773 27.2427 33.344 25.1754C35.9151 23.1081 36.3259 19.3259 34.2586 16.7549C32.1913 14.1838 28.4091 13.773 25.8381 15.8403ZM31.9241 23.4095C30.3252 24.6951 27.975 24.4399 26.6894 22.8409C25.4037 21.242 25.659 18.8918 27.2579 17.6061C28.8569 16.3205 31.2071 16.5758 32.4927 18.1747C33.7783 19.7736 33.5231 22.1239 31.9241 23.4095Z" fill="black" stroke="black" stroke-width="0.5"></path>
  </g>
  <defs>
    <clipPath id="clip0_205_49">
      <rect width="48" height="57" fill="white"></rect>
    </clipPath>
  </defs>
</svg>
