<?xml version="1.0" encoding="UTF-8"?>
<svg xmlns="http://www.w3.org/2000/svg" width="68" height="56" viewBox="0 0 68 56" fill="none">
  <g clip-path="url(#clip0_205_44)">
    <path d="M12 29.8517C12.3198 29.0888 12.5289 28.2521 12.984 27.5753C13.9433 26.1602 15.3701 25.545 17.0674 25.545C19.5642 25.545 22.0611 25.545 24.5579 25.545C24.8777 25.545 25.2098 25.6188 25.5172 25.7295C27.0916 26.2464 28.6536 26.7878 30.2403 27.2923C30.474 27.3661 30.7815 27.3538 31.0029 27.2554C32.8232 26.5048 34.6312 25.7295 36.427 24.9297C36.6607 24.819 36.9067 24.5975 37.0297 24.3637C37.8537 22.764 38.6409 21.1398 39.465 19.5401C39.6249 19.2202 39.8463 18.9126 40.1168 18.6911C41.888 17.1899 43.6714 15.7256 45.4426 14.2244C45.8608 13.8675 46.2912 13.7322 46.8324 13.7322C51.0266 13.7445 55.2207 13.7322 59.4149 13.7322C59.6363 13.7322 59.8454 13.7322 60.1529 13.7322V13.0677C60.1529 9.14242 60.1529 5.22943 60.1529 1.30414C60.1529 0.135166 60.6817 -0.246288 61.7887 0.122861C63.5476 0.713501 65.3064 1.30414 67.0775 1.88247C67.6064 2.05474 68.0246 2.32545 68.0123 2.9284C68 3.50673 67.5818 3.76514 67.0775 3.9251C65.5893 4.405 64.1133 4.93411 62.6251 5.4017C62.2069 5.53706 62.0839 5.72163 62.1208 6.1277C62.1577 6.66912 62.1208 7.21054 62.1208 7.82579C63.0433 7.82579 63.9042 7.82579 64.7775 7.82579C65.7246 7.82579 66.0567 8.15802 66.0567 9.11781C66.0567 10.9389 66.069 12.7601 66.0567 14.5935C66.0321 17.0176 64.6176 18.8511 62.2807 19.4663C61.7887 19.5894 61.2721 19.614 60.7678 19.6263C59.4764 19.6509 58.1849 19.6263 56.8812 19.6263C56.6844 19.6263 56.4876 19.6263 56.2662 19.6263V23.5516C57.4101 23.5516 58.5416 23.5393 59.6609 23.5516C60.239 23.5639 60.8416 23.5762 61.3951 23.7238C63.6828 24.3514 65.0604 26.1971 65.0727 28.6089C65.085 30.9592 65.0727 33.3094 65.0727 35.672C65.0727 35.8689 65.0727 36.0657 65.0727 36.3118H67.0037V38.256H53.302C53.2897 38.5021 53.2774 38.699 53.2774 38.8836C53.2774 40.2494 53.2774 41.6153 53.2774 42.9811C53.2774 43.8302 52.933 44.1747 52.072 44.1747C48.7881 44.1747 45.5041 44.1747 42.2324 44.1747C42.011 44.1747 41.8019 44.1747 41.5313 44.1747C41.5313 44.3962 41.5067 44.5931 41.5067 44.79C41.5067 46.1066 41.5067 47.4109 41.5067 48.7276C41.5067 49.7612 41.1992 50.0688 40.1783 50.0688C35.9473 50.0688 31.7162 50.0688 27.4852 50.0688C27.2761 50.0688 27.0547 50.0688 26.7841 50.0688C26.7841 51.1886 26.7841 52.2591 26.7841 53.3296C26.7841 53.7726 26.7718 54.2033 26.7841 54.6463C26.8087 55.2492 26.6119 55.7168 26.0338 55.9752H12V54.0064H15.899V42.2059C15.0257 42.2059 14.2016 42.1813 13.3653 42.2059C12.7626 42.2305 12.3075 42.0583 12 41.5168C12 37.6162 12 33.7155 12 29.8025V29.8517ZM46.3281 42.2428V21.6935C45.0736 22.5302 43.9666 23.3916 43.204 24.6836C42.38 26.0741 41.4329 27.403 40.5104 28.732C40.289 29.0396 39.9693 29.3349 39.6372 29.5072C37.251 30.7254 34.8649 31.9313 32.4542 33.1002C32.0729 33.2848 31.5809 33.3463 31.1505 33.334C30.5355 33.3094 29.9205 33.1741 29.3178 33.0756C28.1494 32.9157 26.9932 32.7434 25.8124 32.5834V35.3644C27.0301 35.3644 28.1986 35.3028 29.3547 35.389C30.1788 35.4505 31.0521 35.5612 31.7777 35.8935C33.7457 36.804 34.5943 38.4775 34.6066 40.6186C34.6066 42.895 34.6066 45.1714 34.6066 47.4602C34.6066 47.6693 34.6066 47.8908 34.6066 48.1246H39.5142C39.5142 47.9031 39.5142 47.7063 39.5142 47.5094C39.5142 46.2543 39.5142 44.9992 39.5142 43.7317C39.5142 42.5382 39.7971 42.2551 41.0024 42.2428C42.7736 42.2428 44.5324 42.2428 46.3281 42.2428ZM17.9284 31.4637V54.0064H20.8557C20.8557 53.7603 20.8557 53.5511 20.8557 53.3296C20.8557 49.429 20.8557 45.5283 20.8557 41.6153C20.8557 40.6063 21.1878 40.2617 22.1964 40.2617C24.2381 40.2617 26.2798 40.2617 28.3215 40.2617C29.3547 40.2617 29.6991 40.6063 29.7114 41.6399C29.7114 43.5964 29.7114 45.5406 29.7114 47.4971C29.7114 47.6939 29.7114 47.8908 29.7114 48.1123H32.6141C32.6264 47.9893 32.651 47.8785 32.651 47.7801C32.651 45.3314 32.651 42.895 32.651 40.4463C32.651 40.1264 32.6018 39.7941 32.5157 39.4742C32.1344 38.1207 31.0152 37.3331 29.4531 37.3208C27.9526 37.3208 26.4643 37.3208 24.9638 37.3208C24.2504 37.3208 23.8445 37.0132 23.8322 36.4103C23.8076 34.7368 23.8076 33.051 23.8322 31.3775C23.8322 30.8238 24.2381 30.4916 24.8039 30.4793C25.0745 30.4793 25.345 30.5162 25.6156 30.5531C27.4729 30.8238 29.3301 31.0945 31.1873 31.3529C31.3964 31.3775 31.6547 31.3037 31.8515 31.2053C33.6473 30.3193 35.443 29.421 37.2264 28.5228C37.497 28.3874 37.7676 28.2398 38.0628 28.0798C37.7553 27.6122 37.4724 27.1938 37.1895 26.7632C37.0051 26.837 36.8575 26.8985 36.7099 26.96C34.9387 27.723 33.1553 28.4736 31.3964 29.2488C30.9291 29.458 30.4986 29.4703 30.0189 29.298C28.3461 28.732 26.698 28.0921 24.9884 27.6491C23.9921 27.403 22.922 27.4892 21.8274 27.4276V34.3184H19.8471V27.4892C18.9247 27.4892 18.076 27.4892 17.215 27.4892C15.1487 27.5015 13.9679 28.695 13.9679 30.7623C13.9679 33.7401 13.9679 36.7056 13.9679 39.6834C13.9679 39.8557 13.9802 40.0402 13.9925 40.2125H15.9482V31.4514H17.9284V31.4637ZM63.1048 36.3241C63.1048 36.1027 63.1048 35.9181 63.1048 35.7458C63.1048 33.4448 63.1048 31.1437 63.1048 28.855C63.1048 26.7139 61.9363 25.5573 59.7839 25.545C58.3817 25.545 56.9796 25.545 55.5774 25.545C54.6058 25.545 54.2614 25.1881 54.2614 24.216C54.2614 22.481 54.2614 20.746 54.2614 19.0233C54.2614 18.0143 54.5935 17.6944 55.6143 17.6944C57.3855 17.6944 59.1566 17.6944 60.9154 17.6944C62.8711 17.6821 64.0764 16.4516 64.0887 14.4951C64.0887 13.1046 64.0887 11.7265 64.0887 10.336C64.0887 10.176 64.0641 10.0161 64.0641 9.86841H62.1208C62.1208 11.3696 62.1208 12.8339 62.1208 14.2859C62.1208 15.4057 61.8133 15.7133 60.7063 15.7133C58.6277 15.7133 56.5491 15.7133 54.4705 15.7133C54.0892 15.7133 53.8924 15.8117 53.7571 16.1809C53.302 17.3868 52.7977 18.5803 52.3303 19.7862C52.1458 20.2661 51.8506 20.623 51.2972 20.6107C50.7683 20.6107 50.4977 20.2538 50.3132 19.7862C49.895 18.7157 49.4645 17.6575 49.0463 16.5869C48.702 15.7133 48.702 15.701 47.7426 15.7133C47.2998 15.7133 46.857 15.6025 46.4511 15.9471C44.8399 17.3252 43.204 18.6665 41.5928 20.02C41.4452 20.1431 41.2976 20.303 41.2115 20.4753C40.4243 22.038 39.6372 23.6008 38.8623 25.1635C38.8008 25.2989 38.7885 25.5204 38.8623 25.6434C39.0468 25.9879 39.2928 26.3079 39.5511 26.6893C40.3997 25.4219 41.2361 24.216 42.0233 22.9609C42.503 22.2103 43.081 21.5828 43.8067 21.0783C44.803 20.3769 45.7624 19.6263 46.7463 18.888C47.103 18.6296 47.5212 18.4942 47.8533 18.7772C48.1116 18.9987 48.2346 19.3802 48.3699 19.7124C48.4314 19.8724 48.3822 20.0692 48.3822 20.2538C48.3822 27.3292 48.3822 34.4046 48.3822 41.4799C48.3822 41.7137 48.3822 41.9352 48.3822 42.169H51.3341V41.4922C51.3341 37.5916 51.3341 33.6909 51.3341 29.7779C51.3341 28.8058 51.6785 28.4613 52.6501 28.4489C54.7288 28.4489 56.8074 28.4489 58.886 28.4489C59.87 28.4489 60.1775 28.7812 60.1775 29.7779C60.1775 31.7467 60.1775 33.7155 60.1775 35.6843C60.1775 35.8812 60.1775 36.0657 60.1775 36.2872H63.1294L63.1048 36.3241ZM27.7066 48.1492V42.2921H22.8605V54.0064H24.7916C24.7916 52.4314 24.7916 50.9056 24.7916 49.3797C24.7916 48.5061 25.1483 48.1615 26.0215 48.1492C26.5627 48.1492 27.1162 48.1492 27.6943 48.1492H27.7066ZM58.148 36.3241V30.5039H53.3143V36.3241H58.148ZM62.1454 3.53134C62.7112 3.34677 63.2278 3.1745 63.7443 3.00223C63.7443 2.96531 63.7443 2.91609 63.7443 2.87918C63.2278 2.70691 62.7112 2.53464 62.1577 2.35006V3.53134H62.1454ZM50.8175 15.7502C50.9774 16.1563 51.125 16.5254 51.3218 17.0053C51.5186 16.5008 51.6539 16.144 51.8015 15.7502H50.8175Z" fill="black"></path>
    <path d="M56.217 6.89076C56.2047 10.1147 53.5357 12.7602 50.3255 12.7602C47.103 12.7602 44.3971 10.0285 44.434 6.81693C44.4709 3.56842 47.1153 0.947455 50.3378 0.95976C53.5849 0.95976 56.2293 3.62994 56.217 6.89076ZM49.3661 7.88747H51.2848C51.2971 9.01953 50.8052 9.90549 50.0426 10.7422C50.2148 10.7668 50.2886 10.7914 50.3747 10.7914C52.1704 10.7422 53.6464 9.57325 54.126 7.82594C54.6057 6.05403 53.7202 4.15906 51.9982 3.31001C50.3378 2.48558 48.2591 3.0393 47.1276 4.58973C46.0698 6.05403 46.2174 8.15818 47.4351 9.47481C47.6565 9.72091 47.8532 9.75783 48.1484 9.62247C48.8987 9.27793 49.2554 8.67499 49.3538 7.87516L49.3661 7.88747Z" fill="black"></path>
    <path d="M19.8593 12.7603C23.0941 12.7603 25.7508 15.4059 25.7631 18.6298C25.7631 21.8414 23.1187 24.5116 19.8839 24.5362C16.6491 24.5608 13.9555 21.866 13.9678 18.6175C13.9678 15.3813 16.6245 12.748 19.8593 12.748V12.7603ZM20.831 19.6634C20.9294 20.4878 21.2984 21.0785 22.024 21.423C22.3069 21.5584 22.5037 21.5461 22.7374 21.2876C23.6599 20.254 23.9674 19.0604 23.6722 17.7438C23.2909 16.0457 21.7904 14.8275 20.0807 14.7414C18.3219 14.6553 16.7106 15.7258 16.1694 17.3254C15.5914 19.0604 16.1694 20.857 17.6331 21.866C18.3588 22.3705 19.1705 22.6289 20.1422 22.5058C19.355 21.6691 18.8876 20.7831 18.8999 19.6511H20.8187L20.831 19.6634Z" fill="black"></path>
    <g style="mix-blend-mode:multiply">
      <circle cx="17.5" cy="21.5" r="17.5" fill="#00E2E1"></circle>
    </g>
  </g>
  <defs>
    <clipPath id="clip0_205_44">
      <rect width="68" height="56" fill="white"></rect>
    </clipPath>
  </defs>
</svg>
