<?xml version="1.0" encoding="UTF-8"?>
<svg xmlns="http://www.w3.org/2000/svg" width="66" height="60" viewBox="0 0 66 60" fill="none">
  <path d="M63.5217 27.7826V22.8261H59.8044V17.8696H51.7252C49.7178 14.8833 46.3102 12.913 42.4565 12.913H38.7391V10.4348H46.1739V3H36.2609V12.913H32.5435C28.6898 12.913 25.2822 14.8833 23.2748 17.8696H15.1957V22.8261H11.4783V27.7826H9V60H66V27.7826H63.5217ZM38.7391 5.47826H43.6957V7.95652H38.7391V5.47826ZM57.3261 20.3478V22.8261H53.5343C53.4352 21.9711 53.237 21.1409 52.952 20.3478H57.3261ZM32.5435 15.3913H42.4565C46.8183 15.3913 50.4365 18.6254 51.0437 22.8261H23.9563C24.5635 18.6254 28.1817 15.3913 32.5435 15.3913ZM17.6739 20.3478H22.048C21.763 21.1409 21.5648 21.9711 21.4657 22.8261H17.6739V20.3478ZM13.9565 25.3043H61.0435V27.7826H13.9565V25.3043ZM57.4624 30.2609V32.7391H53.8813V30.2609H57.4624ZM51.403 30.2609V32.7391H47.822V30.2609H51.403ZM45.3437 30.2609V32.7391H41.7626V30.2609H45.3437ZM39.2844 30.2609V32.7391H35.7157V30.2609H39.2844ZM33.2374 30.2609V32.7391H29.6563V30.2609H33.2374ZM27.178 30.2609V32.7391H23.597V30.2609H27.178ZM21.1187 30.2609V32.7391H17.5376V30.2609H21.1187ZM11.4783 30.2609H15.0593V32.7391H11.4783V30.2609ZM28.1074 57.5217H11.4783V55.0435H29.5076L28.1074 57.5217ZM16.4348 52.5652V44.8083C16.4348 42.2557 18.5165 40.1739 21.0691 40.1739C23.6217 40.1739 25.6911 42.2557 25.6911 44.8083V52.5652H16.4348ZM30.945 57.5217L32.3576 55.0435H42.6424L44.055 57.5217H30.945ZM32.8657 52.5652V44.8083C32.8657 42.2557 34.9474 40.1739 37.5 40.1739C40.0526 40.1739 42.1343 42.2557 42.1343 44.8083V52.5652H32.8657ZM63.5217 57.5217H46.8926L45.4924 55.0435H63.5217V57.5217ZM49.3089 52.5652V44.8083C49.3089 42.2557 51.3783 40.1739 53.9309 40.1739C56.4835 40.1739 58.5652 42.2557 58.5652 44.8083V52.5652H49.3089ZM63.5217 52.5652H61.0435V44.8083C61.0435 40.8802 57.8589 37.6957 53.9309 37.6957C50.0028 37.6957 46.8307 40.8802 46.8307 44.8083V52.5652H44.6126V44.8083C44.6126 40.8802 41.4157 37.6957 37.5 37.6957C33.5843 37.6957 30.3874 40.8802 30.3874 44.8083V52.5652H28.1694V44.8083C28.1694 40.8802 24.9848 37.6957 21.0691 37.6957C17.1535 37.6957 13.9565 40.8802 13.9565 44.8083V52.5652H11.4783V35.2174H63.5217V52.5652ZM63.5217 32.7391H59.9407V30.2609H63.5217V32.7391Z" fill="black"></path>
  <g style="mix-blend-mode:multiply">
    <circle cx="17.5" cy="36.5" r="17.5" fill="#FF6E01"></circle>
  </g>
</svg>
