<?xml version="1.0" encoding="UTF-8"?>
<svg xmlns="http://www.w3.org/2000/svg" width="67" height="56" viewBox="0 0 67 56" fill="none">
  <path d="M49.6 21.3C45.1 14.9 43.6 12.3 43.3 11.7V0.499988H40.6V11.8C40.6 12.3 40.6001 13.1 47.4001 22.8C48.4001 24.2 48.6 24.8 48.6 25V25.1C48.5 25.2 48.5 25.3 48.5 25.3C48.1 25.3 47.3 24.9 45 22C44.3 21.1 44 20.7 43.3 20.7C40.7 20.7 40.7001 23.9 40.7001 25.2V34.2C40.7001 34.5 40.5001 34.7 40.2001 34.7C39.9001 34.7 39.7001 34.5 39.7001 34.2V27.3C39.7001 26.6 39.1001 26 38.4001 26C37.7001 26 37.1 26.6 37.1 27.3V35.7C37.1 36 36.9 36.2 36.6 36.2C36.3 36.2 36.1 36 36.1 35.7V28C36.1 27.3 35.5 26.7 34.8 26.7C34.1 26.7 33.5 27.3 33.5 28V33.4C33.5 33.7 33.3 33.9 33 33.9C32.7 33.9 32.5 33.7 32.5 33.4V26.4C32.5 25.7 31.9001 25.1 31.2001 25.1C30.5001 25.1 29.9 25.7 29.9 26.4V30.4C29.9 30.7 29.7 30.9 29.4 30.9C29.1 30.9 28.9 30.7 28.9 30.3C28.9 30.3 28.9 30.3 28.9 30.2C28.9 29 29 17.8 30.8 13C31.1 12.2 31.2001 9.09999 31.2001 5.59999C31.2001 3.99999 31.2001 2.39999 31.2001 0.799988V0.299988H28.5V0.799988C28.5 2.29999 28.5 3.69999 28.5 4.99999C28.5 8.89999 28.4 11.6 28.3 11.9C27 15.2 26.5 21 26.4 25.2C26.4 25.9 26.3 26.6 26.3 27.2C26.3 28.5 26.3 29.5 26.3 30C26.3 30.1 26.3 30.1 26.3 30.2C26.3 30.9 26.5 31.6 27 32.1C27.4 32.7 28.1 33.1 28.8 33.3C29.2 33.4 29.7 33.4 30.1 33.3C30.1 33.4 30.1 33.5 30.1 33.7C30.2 34.4 30.6001 35.1 31.2001 35.6C31.9001 36.2 32.8 36.5 33.6 36.4C33.7 36.4 33.8001 36.4 33.9001 36.3C34.1001 37 34.5 37.6 35.1 38C35.6 38.4 36.3 38.6 37 38.6C37.4 38.6 37.8001 38.5 38.2001 38.4C38.8001 38.2 39.3 37.8 39.6 37.3C39.7 37.2 39.7 37.1 39.8 37C40.2 37.1 40.7001 37.2 41.2001 37.1C42.8001 36.9 44 35.5 44 33.9V24.9V24.7C44 24.4 44 24.2 44 24C44.4 24.5 44.8001 25 45.2001 25.4C46.5001 26.8 47.5 27.5 48.6 27.7C48.8 27.7 49.0001 27.7 49.2001 27.7C49.6001 27.7 50.0001 27.6 50.4001 27.4C50.8001 27.2 51.1001 26.8 51.4001 26.4C51.5001 26.2 51.6001 26.1 51.7001 25.9C51.8001 25.5 51.9001 25.2 51.9001 24.8C51.3001 24 50.6 22.8 49.6 21.3Z" fill="black"></path>
  <path d="M19.4999 24.4C20.2999 22.3 20.6999 22.2 20.7999 22.1C20.8999 22.1 20.9999 22.1 20.9999 22.1C21.1999 22.4 21.2999 23.4 20.1999 26.9C19.7999 28 19.6999 28.5 20.0999 29.1C20.5999 29.9 21.4999 30.3 22.5999 30.1C23.2999 30 24.0999 29.6 25.1999 28.9L28.2999 26.9L26.8999 24.7L23.6999 26.7C23.3999 26.9 23.0999 27.1 22.8999 27.2C23.6999 24.8 24.1999 22.3 23.1999 20.7C22.8999 20.3 22.1999 19.6 20.8999 19.5C18.8999 19.5 17.9999 21.3 17.0999 23.4C14.6999 29.5 12.9999 33.2 12.4999 33.9L4.3999 39.2L5.6999 41.2H5.9999L13.9999 36C14.3999 35.8 15.0999 35.4 19.4999 24.4Z" fill="black"></path>
  <path d="M36.5999 36.1L36.2 36.4C35.8 36.7 25.9 43.1 20.8 44.2C19.5 44.5 14.5 47.8 11.7 49.7L11.2 50L12.6 52H13L13.1 51.9C17.4 49 20.8 46.9 21.3 46.8C27.1 45.6 37.1999 38.9 37.5999 38.6L38 38.3L36.5999 36.1Z" fill="black"></path>
  <path d="M65.3001 43.4C63.3001 41.5 61.4001 39.5 61.2001 39C58.7001 33.5 52.5 27.3 52.5 27.3L50.3 24.8L48.3 26.6L50.6 29.2C50.7 29.3 56.6 35.2 58.8 40.2C59.4 41.6 62.8 44.8 63.5 45.5L63.6 45.6L63.8 45.8L65.6 43.9L65.3001 43.4Z" fill="black"></path>
  <path d="M39.9 45.4C39 45.2 37.5 44.9 37.4 44.6C37.4 44.5 37.4 44.4 37.4 44.4C37.6 44.2 38.6 43.8 42.2 44.2C43.3 44.3 43.8 44.4 44.4 43.9C46.2 42.1 44 39.8 43.1 39L38.9 34.4L36.9 36.2L41.1 40.8C41.4 41.1 41.6 41.3 41.7 41.5C39.2 41.2 36.6 41.2 35.4 42.6C35 43.1 34.5 43.9 34.8 45.1C35.2 47.1 37 47.6 39.4 48C47.1 49.3 50 50.1 50.6 50.3L54.4 54.1L55 54.7L56.8 52.7L52.4 48.3C52 48.1 51.4 47.5 39.9 45.4Z" fill="black"></path>
  <path d="M49.4 29.9L46.7 25.2C46.5 24.8 46 24.7 45.6 24.9C45.2 25.1 45.1 25.6 45.3 26L48 30.7C48.2 31.1 48.7 31.2 49.1 31C49.5 30.8 49.6 30.3 49.4 29.9Z" fill="black"></path>
  <path d="M47.1999 31.8L43.0999 25.4C42.8999 25 42.2999 24.9 41.9999 25.2C41.5999 25.4 41.4999 26 41.7999 26.3L45.8999 32.7C46.0999 33.1 46.6999 33.2 46.9999 32.9C47.2999 32.7 47.3999 32.2 47.1999 31.8Z" fill="black"></path>
  <path d="M44.6999 33.7L43.0999 31.3C42.8999 30.9 42.2999 30.8 41.9999 31.1C41.5999 31.4 41.4999 31.9 41.7999 32.3L43.3999 34.7C43.5999 35.1 44.1999 35.2 44.4999 34.9C44.7999 34.6 44.8999 34.1 44.6999 33.7Z" fill="black"></path>
  <path d="M31.5 35.1L29.1 36.7C28.7 37 28.6 37.5 28.9 37.9C29.2 38.3 29.7 38.4 30 38.1L32.4 36.5C32.8 36.2 32.9 35.7 32.6 35.3C32.4 34.9 31.9 34.8 31.5 35.1Z" fill="black"></path>
  <path d="M29.3001 32.3L26.9001 34C26.5001 34.3 26.4001 34.8 26.7001 35.2C27.0001 35.6 27.5001 35.7 27.9001 35.4L30.3001 33.7C30.7001 33.4 30.8001 32.9 30.5001 32.5C30.2001 32.1 29.7001 32.1 29.3001 32.3Z" fill="black"></path>
  <path d="M25.8999 30.7L24.7999 31.4C24.3999 31.6 24.2999 32.2 24.4999 32.6C24.6999 33 25.2999 33.1 25.5999 32.9L26.6999 32.2C27.0999 32 27.1999 31.4 26.9999 31C26.7999 30.5 26.2999 30.4 25.8999 30.7Z" fill="black"></path>
  <g style="mix-blend-mode:multiply">
    <path d="M18.5 38C28.165 38 36 30.165 36 20.5C36 10.835 28.165 3 18.5 3C8.83502 3 1 10.835 1 20.5C1 30.165 8.83502 38 18.5 38Z" fill="#FEDF82"></path>
  </g>
</svg>
