<svg xmlns="http://www.w3.org/2000/svg" fill="none" viewBox="0 0 30 30" class="socials"><g fill="currentColor"><path d="M6.812 9.922H.51v20.072h6.302zM23.816 9.485a11.28 11.28 0 0 0-.726-.058 7.356 7.356 0 0 0-6.22 2.85c-.188.246-.275.391-.275.391V9.985h-6.021v20.072h6.302v-9.433c0-1.362-.102-2.818.58-4.066.58-1.05 1.623-1.57 2.798-1.57 3.484 0 3.557 3.15 3.557 3.442v11.648h6.302V16.974c0-4.482-2.277-7.134-6.302-7.56zM3.66 7.322c2.018 0 3.662-1.644 3.662-3.661S5.678 0 3.66 0 0 1.643 0 3.66s1.643 3.662 3.66 3.662z"/></g></svg>
