<svg width="512" height="512" fill="none" version="1.1" viewBox="0 0 512 512" xmlns="http://www.w3.org/2000/svg"><path d="m265.2 1.4e-6c55.43 9.51e-5 102.5 19.57 141.1 58.7 38.65 39.14 57.98 88.6 57.98 148.4 0 41.71-16.64 88.02-49.92 138.9-33.29 50.92-83.02 106.2-149.2 166-66.17-59.74-115.9-115.1-149.2-166-33.28-50.92-49.92-97.23-49.92-138.9.000566-59.77 19.33-109.2 57.98-148.4 38.66-39.14 85.7-58.7 141.1-58.7zm-.4751 96.37c-51.93 0-94.02 42.1-94.03 94.03 0 51.93 42.1 94.03 94.03 94.03 51.93-5e-4 94.03-42.1 94.03-94.03-.00049-51.93-42.1-94.02-94.03-94.03z" fill="#229fa3" stroke-width="5.12"/></svg>
