<svg class="e-font-icon-svg e-far-calendar-check" width="512" height="512" aria-hidden="true" version="1.1" viewBox="0 0 512 512" xmlns="http://www.w3.org/2000/svg"><path d="m432 64h-48v-52c0-6.627-5.373-12-12-12h-40c-6.627 0-12 5.373-12 12v52h-128v-52c0-6.627-5.373-12-12-12h-40c-6.627 0-12 5.373-12 12v52h-48c-26.51 0-48 21.49-48 48v352c0 26.51 21.49 48 48 48h352c26.51 0 48-21.49 48-48v-352c0-26.51-21.49-48-48-48zm-6 400h-340a6 6 0 01-6-6v-298h352v298a6 6 0 01-6 6zm-52.85-200.6-142.3 141.2c-4.705 4.667-12.3 4.637-16.97-.068l-75.09-75.7c-4.667-4.705-4.637-12.3.068-16.97l22.72-22.54c4.705-4.667 12.3-4.637 16.97.069l44.1 44.46 111.1-110.2c4.705-4.667 12.3-4.637 16.97.068l22.54 22.72c4.667 4.705 4.636 12.3-.069 16.97z" fill="#548feb"/></svg>
