<svg xmlns="http://www.w3.org/2000/svg" viewBox="0 0 350 75.2"><path fill="#3649d1" d="M0 .07v43.68h13.73V29.19h19.03c13.62 0 20.38-4.78 20.38-14.35v-.6C53.14 4.78 46.35 0 32.76 0zm149.76 0v43.68h13.1V28.88c0-2.58.88-4.66 2.65-6.22 1.75-1.57 4.1-2.35 7.04-2.35 2.81 0 4.93.68 6.34 2.06 1.4 1.37 2.11 3.3 2.11 5.8v15.6h13.21V23.82c0-3.4-1.29-6.3-3.88-8.68-2.58-2.43-6.42-3.64-11.54-3.64h-.41c-6.38 0-11.55 2-15.6 5.99V.1zM13.52 9.99h18.82c4.23 0 6.35 1.55 6.35 4.64v.17c0 3.06-2.11 4.58-6.35 4.58H13.52zm105.04 1.29c-3.37 0-6.28.25-8.75.76a19.42 19.42 0 0 0-5.52 1.76 9 9 0 0 0-4.35 5.46c-.15.78-.23 1.69-.23 2.7v.11h12.17c.04-.35.08-.6.11-.76.08-.2.28-.49.6-.88.34-.43.78-.74 1.28-.94.55-.24 1.35-.45 2.4-.65 1.1-.2 2.39-.29 3.87-.29h.3c2.39 0 4.22.16 5.52.47 1.29.27 2.05.57 2.29.88.27.31.4.72.4 1.24 0 .94-.66 1.48-1.99 1.64l-14.46 1.35c-4.73.43-8.14 1.4-10.2 2.88-2.05 1.49-3.07 3.68-3.07 6.58v.4c0 2.98 1.2 5.45 3.58 7.4 2.42 1.96 6.13 2.93 11.13 2.93h.76c4.07 0 7.28-.5 9.63-1.52 2.35-1.07 4.02-2.2 5-3.4.46 2.89 2.13 4.34 4.99 4.34h10.6v-8.57h-1.7c-1.1 0-1.64-.53-1.64-1.58V21.53c0-1.14-.08-2.1-.24-2.88A6.74 6.74 0 0 0 139.7 16a7.91 7.91 0 0 0-3.11-2.46 23.2 23.2 0 0 0-5.75-1.58c-2.5-.43-5.52-.65-9.04-.65zm101.82 0c-3.37 0-6.29.25-8.75.76a19.42 19.42 0 0 0-5.52 1.76 9 9 0 0 0-4.35 5.46c-.16.78-.23 1.69-.23 2.7v.11h12.17c.03-.35.07-.6.11-.76.08-.2.28-.49.59-.88.35-.43.78-.74 1.29-.94.55-.24 1.35-.45 2.4-.65 1.1-.2 2.38-.29 3.87-.29h.3c2.39 0 4.22.16 5.52.47 1.29.27 2.04.57 2.28.88.28.31.41.72.41 1.24 0 .94-.66 1.48-2 1.64l-14.45 1.35c-4.73.43-8.14 1.4-10.21 2.88-2.04 1.49-3.06 3.68-3.06 6.58v.4c0 2.98 1.2 5.45 3.58 7.4 2.42 1.96 6.12 2.93 11.13 2.93h.76c4.07 0 7.28-.5 9.63-1.52 2.35-1.07 4.01-2.2 5-3.4.46 2.89 2.12 4.34 4.98 4.34h10.61v-8.57h-1.7c-1.1 0-1.65-.53-1.65-1.58V21.53c0-1.14-.08-2.1-.23-2.88A6.73 6.73 0 0 0 241.5 16a7.91 7.91 0 0 0-3.11-2.46 23.2 23.2 0 0 0-5.76-1.58c-2.5-.43-5.52-.65-9.03-.65zm-137.28.18c-2.4 0-4.58.43-6.58 1.29-1.95.86-3.35 1.7-4.17 2.52s-1.5 1.65-2.06 2.47v-5.58h-13v31.62h13.1V27.45c0-2.15.62-3.95 1.83-5.4a6.1 6.1 0 0 1 4.99-2.23h.06c2.3 0 4 .7 5.04 2.1a8.64 8.64 0 0 1 1.65 5.47h12.58v-1.82c0-4.3-1.06-7.73-3.17-10.28-2.07-2.54-5.3-3.81-9.69-3.81zm45.55 17.26v1c0 1.95-1.07 3.7-3.23 5.22s-4.9 2.29-8.27 2.29c-2.04 0-3.5-.36-4.4-1.06a3.13 3.13 0 0 1-1.36-2.53v-.06a2 2 0 0 1 1.07-1.88c.7-.43 1.93-.78 3.7-1.06zm101.81 0v1c0 1.95-1.07 3.7-3.22 5.22s-4.9 2.29-8.28 2.29c-2.04 0-3.5-.36-4.4-1.06a3.13 3.13 0 0 1-1.35-2.53v-.06a2 2 0 0 1 1.06-1.88c.7-.43 1.94-.78 3.7-1.06zm28.4 1.75a45.03 45.03 0 0 0 45.03 44.5 45.03 45.03 0 0 0 45.03-44.5h-15.6a29.43 29.43 0 0 1 0 .07 29.43 29.43 0 0 1-29.43 29.43 29.43 29.43 0 0 1-29.43-29.43 29.43 29.43 0 0 1 0-.07z"/><path fill="#00ae00" d="M315.12 43.75h-24.34v-4.58q0-4.17 1.94-7.68 2-3.58 7.75-8.34 1.75-1.4 5.22-4.05 3.52-2.64 5.28-4.1t1.76-1.94h-19.35v7.45H272.8V.13h59.28v10.82q-6.57 7.63-9.74 12.06-4 5.7-5.58 10.4-1.58 4.75-1.58 10.28z"/></svg>