<svg width="2048" height="2048" version="1.1" viewBox="0 0 2048 2048" xmlns="http://www.w3.org/2000/svg"><g><path d="m836 553-90.7 517h101l37.3-209 99.7.965c46.9.454 54.3 48.4 54.8 63.9 2.13 69.3.0912 95.3 6.88 145 71.7 2.15 110-.0313 110-.0313-6.11-15.3-15.6-38.1-14.5-111-.0283-74.4-14.7-117-39.7-129l-16.6-8.3 40-15.8c112-44.2 140-242-31.1-252-27.1-1.69-258-1.25-258-1.25zm89.2 78s116 2.21 135 6.01c65.2 13.1 49.7 137-28.5 144-48.1 4.56-134 3.48-134 3.48l27.9-154z" fill="#1c4771"/><path d="m362 552-92.3 518h104l34.6-196s85.3 1.07 107 .488c55.5-1.75 99.8-11.4 134-35.7 100-57.8 109-217 21.6-266-39-22.8-71.1-21.9-187-21.5l-122-.209zm88.5 81.9s80.8-.217 105 .0469c60.2 2.71 68.8 43.6 65.6 73.8-3.59 33.2-18.1 76.3-82.5 83.8-8.85 2.27-115 1.34-115 1.34l27.5-159z" fill="#1c4771"/><path d="m1384 841 1.21 23c3.26 61.9 28.1 99.6 74.1 113 23.5 6.59 67 2.42 65.1-6.24-.537-2.5-2.49-13.2-4.33-23.8-12.1-69-53.6-106-120-106h-16.2zm-136 135c-1.63.0415-3.29 3.15-6.56 9.36l-287 545 147 1.01 126-221 222 2.04 4.39 129c1.27 37.2 8.8 56.1 21.3 90.4l149-1.47c-9.79-25.5-20.9-57.9-30.8-102-9.88-44.3-18.5-101-29.2-175l-21.7-150c-22.5 4.13-72.1 9.41-119 .889l16.6 110-162-.186 67.2-137c.212-.436-4.55-2.79-9.25-5.56-31.9-18.8-65.6-54.3-82-86.1-3.12-6.06-4.71-9.09-6.33-9.05z" fill="#f9d81a"/><path d="m1548 539c-120-1.48-249 72.1-288 222-43.8 168 32.3 301 183 321 186 24.3 335-116 334-315-.322-150-110-227-230-228zm-7.11 78.2c18.2.371 36.7 4.62 55.1 13.3 120 56.6 83.4 315-52.9 365-93.5 34.7-178-23.6-183-130-6.04-139 82.5-251 181-248z" fill="#1c4771"/><path d="m590 1542c-118-16.7-187-90.2-187-200-.0124-31.7 30.9-235 55.4-364 2.22-11.7 5.66-30.5 7.63-41.6 1.97-11.1 4.48-23.9 5.58-28.3l2-8 27.1-.0228c34-.0286 80.1-4.92 99.5-10.5 18.4-5.35 17.4-10 8.6 39.6-52.5 295-13.8 78.7-57.6 327-22.2 126 2.33 172 96.9 183 105 12.2 168-37.6 187-147 28.7-132 42.8-270 72.6-402 1.16-4.06 75.3-3.74 85.1.372 17.6 7.36 20.4 25 11.9 77-21.7 131-38.8 264-68.7 394-24.9 104-84.5 157-197 177-28.3 5.04-124 7.74-149 4.2z" fill="#f9d81a"/></g></svg>
