<svg xmlns="http://www.w3.org/2000/svg" width="184.461" height="79.797" viewBox="0 0 184.461 79.797"><g fill="#d20a14"><path d="m136.661 79.101 11.931-64.369 3.754.696-11.93 64.369zM163.203 65.696l1.643-65.717 3.82.096-1.642 65.717zM179.592 79.709l1.055-70.328 3.82.057-1.055 70.328zM0 28.383h11.684c6.159 0 12.454 3.4 12.454 11.094s-6.295 11.1-12.454 11.1H8.378v9.509H0Zm15.759 11.094c0-3.4-2.174-5.026-4.076-5.026H8.378v10.054h3.306c1.901 0 4.075-1.631 4.075-5.028M44.974 36.398v7.2a8.8 8.8 0 0 0-3.532-.724c-2.31 0-4.71.951-5.752 2.4v14.808h-8.155V36.266h8.151v4.529c1.585-3.443 4.256-5.21 6.386-5.21a4.96 4.96 0 0 1 2.902.813M68.48 43.327v16.755h-8.153v-2.171a10.3 10.3 0 0 1-7.018 2.855c-4.846 0-7.2-2.535-7.2-6.613 0-4.483 3.4-7.79 11.548-7.79.861 0 1.721.046 2.671.136v-2.267c0-2.489-1-3.44-2.9-3.44s-3.034.858-3.125 3.62h-7.741c.316-6.338 4.981-8.83 10.867-8.83 4.71 0 11.051 1.315 11.051 7.745m-8.153 7.2a21 21 0 0 0-2.309-.136c-1.721 0-3.94.545-3.94 2.673 0 1.9 1.585 2.355 2.807 2.355a5.43 5.43 0 0 0 3.441-1.4ZM96.97 43.461v16.62h-8.15V44.824c0-2.128-1.225-2.853-3.037-2.853a6.16 6.16 0 0 0-3.711 1.494v16.62h-8.153V26.389h8.153v13.043a11.46 11.46 0 0 1 8.287-3.85c3.214 0 6.611 1.542 6.611 7.879M123.421 43.327v16.755h-8.153v-2.171a10.3 10.3 0 0 1-7.018 2.855c-4.846 0-7.2-2.535-7.2-6.613 0-4.483 3.393-7.79 11.546-7.79.861 0 1.721.046 2.671.136v-2.267c0-2.489-1-3.44-2.9-3.44s-3.034.858-3.123 3.62h-7.741c.316-6.338 4.981-8.83 10.867-8.83 4.71 0 11.051 1.315 11.051 7.745m-8.153 7.2a21 21 0 0 0-2.309-.136c-1.722 0-3.94.545-3.94 2.673 0 1.9 1.585 2.355 2.809 2.355a5.43 5.43 0 0 0 3.44-1.4Z"/></g></svg>
