<svg xmlns="http://www.w3.org/2000/svg" fill="none" viewBox="0 0 20 20"><path stroke="currentColor" stroke-linecap="round" stroke-linejoin="round" stroke-width="1.67" d="M1.67 7.92c0-.927.281-1.83.807-2.6s1.27-1.35 2.14-1.68a4.59 4.59 0 0 1 5.05 1.214.46.46 0 0 0 .341.148.468.468 0 0 0 .341-.148 4.557 4.557 0 0 1 2.34-1.4 4.581 4.581 0 0 1 2.72.173c.868.333 1.61.922 2.14 1.69s.804 1.68.799 2.61c0 1.91-1.25 3.33-2.5 4.58l-4.58 4.43a1.66 1.66 0 0 1-1.247.572 1.674 1.674 0 0 1-1.254-.556l-4.59-4.44c-1.25-1.25-2.5-2.67-2.5-4.58z"/></svg>
