<svg fill="none" version="1.1" viewBox="0 0 20 20" xmlns="http://www.w3.org/2000/svg"><g id="a"><path id="b" d="m1.67 7.92c1e-5-.927.281-1.83.807-2.6s1.27-1.35 2.14-1.68 1.81-.393 2.71-.176c.902.217 1.72.703 2.34 1.39.0436.0467.0964.0839.155.109s.122.0386.186.0386c.064 0 .127-.0131.186-.0386s.111-.0627.155-.109c.618-.694 1.43-1.18 2.34-1.4.903-.22 1.85-.159 2.72.173.868.333 1.61.922 2.14 1.69s.804 1.68.799 2.61c0 1.91-1.25 3.33-2.5 4.58l-4.58 4.43c-.155.178-.347.322-.562.42s-.448.15-.685.152c-.236.0015-.471-.0474-.687-.143-.216-.0959-.409-.237-.567-.413l-4.59-4.44c-1.25-1.25-2.5-2.67-2.5-4.58z" stroke="currentColor" stroke-linecap="round" stroke-linejoin="round" stroke-width="1.67"/></g></svg>
