<svg xmlns="http://www.w3.org/2000/svg" fill="none" viewBox="0 0 30 30"><g fill="currentColor"><path d="M15 2.7c4.01 0 4.48.018 6.06.088 1.46.064 2.26.31 2.78.516.697.27 1.2.598 1.72 1.12.527.527.85 1.03 1.12 1.72.205.527.451 1.32.516 2.78.07 1.58.088 2.06.088 6.06 0 4.01-.018 4.48-.088 6.06-.064 1.46-.31 2.26-.516 2.78a4.62 4.62 0 0 1-1.12 1.72c-.527.527-1.03.85-1.72 1.12-.527.205-1.32.45-2.78.516-1.58.07-2.06.088-6.06.088-4.01 0-4.48-.018-6.06-.088-1.46-.065-2.26-.31-2.78-.516a4.62 4.62 0 0 1-1.72-1.12 4.672 4.672 0 0 1-1.12-1.72c-.205-.527-.451-1.32-.516-2.78-.07-1.58-.088-2.06-.088-6.06 0-4.01.018-4.48.088-6.06.064-1.46.311-2.26.516-2.78a4.62 4.62 0 0 1 1.12-1.72 4.672 4.672 0 0 1 1.72-1.12c.527-.205 1.32-.451 2.78-.516 1.58-.07 2.05-.088 6.06-.088zM15 0c-4.07 0-4.58.018-6.18.088-1.59.07-2.69.328-3.64.697-.99.387-1.83.896-2.66 1.73a7.27 7.27 0 0 0-1.73 2.65c-.369.955-.627 2.04-.697 3.64-.07 1.61-.088 2.12-.088 6.19s.018 4.58.088 6.18c.07 1.59.328 2.69.697 3.64.387.99.896 1.83 1.73 2.66a7.347 7.347 0 0 0 2.65 1.73c.955.369 2.04.627 3.64.697 1.6.07 2.11.088 6.18.088s4.58-.018 6.18-.088c1.59-.07 2.69-.328 3.64-.697a7.284 7.284 0 0 0 2.65-1.73 7.347 7.347 0 0 0 1.73-2.65c.369-.955.627-2.04.697-3.64.07-1.6.088-2.11.088-6.18s-.018-4.58-.088-6.18c-.07-1.59-.328-2.69-.697-3.64a7.07 7.07 0 0 0-1.72-2.67 7.347 7.347 0 0 0-2.65-1.73c-.955-.37-2.04-.627-3.64-.697-1.61-.076-2.12-.094-6.19-.094z"/><path d="M15 7.29c-4.25 0-7.71 3.45-7.71 7.71s3.45 7.71 7.71 7.71 7.71-3.45 7.71-7.71S19.26 7.29 15 7.29zm0 12.7c-2.76 0-5-2.24-5-5s2.24-5 5-5 5 2.24 5 5-2.24 5-5 5zm9.8-13a1.8 1.8 0 1 1-1.8-1.8c.99 0 1.8.809 1.8 1.8z"/></g></svg>
