<svg fill="none" version="1.1" viewBox="0 0 30 30" xmlns="http://www.w3.org/2000/svg"><g id="a" fill="currentColor"><path d="m15 2.7c4.01 0 4.48.0176 6.06.0879 1.46.0645 2.26.311 2.78.516.697.27 1.2.598 1.72 1.12.527.527.85 1.03 1.12 1.72.205.527.451 1.32.516 2.78.0703 1.58.0879 2.06.0879 6.06 0 4.01-.0176 4.48-.0879 6.06-.0644 1.46-.31 2.26-.516 2.78-.27.697-.598 1.2-1.12 1.72-.527.527-1.03.85-1.72 1.12-.527.205-1.32.451-2.78.516-1.58.0703-2.06.0879-6.06.0879-4.01 0-4.48-.0176-6.06-.0879-1.46-.0645-2.26-.31-2.78-.516-.697-.27-1.2-.598-1.72-1.12-.527-.527-.85-1.03-1.12-1.72-.205-.527-.451-1.32-.516-2.78-.0703-1.58-.0879-2.06-.0879-6.06 0-4.01.0176-4.48.0879-6.06.0644-1.46.311-2.26.516-2.78.27-.697.598-1.2 1.12-1.72.527-.527 1.03-.85 1.72-1.12.527-.205 1.32-.451 2.78-.516 1.58-.0703 2.05-.0879 6.06-.0879zm0-2.7c-4.07 0-4.58.0176-6.18.0879-1.59.0703-2.69.328-3.64.697-.99.387-1.83.896-2.66 1.73-.838.832-1.35 1.67-1.73 2.65-.369.955-.627 2.04-.697 3.64-.0703 1.61-.0879 2.12-.0879 6.19s.0176 4.58.0879 6.18c.0703 1.59.328 2.69.697 3.64.387.99.896 1.83 1.73 2.66.832.832 1.67 1.35 2.65 1.73.955.369 2.04.627 3.64.697 1.6.0704 2.11.0879 6.18.0879 4.07 0 4.58-.0175 6.18-.0879 1.59-.0703 2.69-.328 3.64-.697.984-.381 1.82-.896 2.65-1.73.832-.832 1.35-1.67 1.73-2.65.369-.955.627-2.04.697-3.64.0703-1.6.0879-2.11.0879-6.18 0-4.07-.0176-4.58-.0879-6.18-.0703-1.59-.328-2.69-.697-3.64-.369-.996-.879-1.83-1.72-2.67-.832-.832-1.67-1.35-2.65-1.73-.955-.369-2.04-.627-3.64-.697-1.61-.0762-2.12-.0938-6.19-.0938z"/><path d="m15 7.29c-4.25 0-7.71 3.45-7.71 7.71s3.45 7.71 7.71 7.71 7.71-3.45 7.71-7.71-3.45-7.71-7.71-7.71zm0 12.7c-2.76 0-5-2.24-5-5s2.24-5 5-5 5 2.24 5 5-2.24 5-5 5z"/><path d="m24.8 6.99c0 .996-.809 1.8-1.8 1.8-.996 0-1.8-.809-1.8-1.8 0-.996.809-1.8 1.8-1.8.99 0 1.8.809 1.8 1.8z"/></g></svg>
