<svg fill="none" version="1.1" viewBox="0 0 29 29" xmlns="http://www.w3.org/2000/svg"><g id="a" fill="currentColor"><path id="b" d="m6.55 9.54h-6.06v19.3h6.06v-19.3z"/><path d="m22.9 9.12c-.223-.0279-.461-.0419-.698-.0558-3.39-.14-5.31 1.87-5.98 2.74-.182.237-.265.377-.265.377v-2.58h-5.79v19.3h6.06v-5.89-3.18c0-1.31-.0978-2.71.558-3.91.558-1.01 1.56-1.51 2.69-1.51 3.35 0 3.42 3.03 3.42 3.31v.028 11.2h6.06v-12.6c0-4.31-2.19-6.86-6.06-7.27z"/><path d="m3.52 7.04c1.94 0 3.52-1.58 3.52-3.52 0-1.94-1.58-3.52-3.52-3.52-1.94 0-3.52 1.58-3.52 3.52 0 1.94 1.58 3.52 3.52 3.52z"/></g></svg>
