<svg xmlns="http://www.w3.org/2000/svg" viewBox="0 0 320 96"><path fill="#030303" d="M295 21h-8.4v10.1h8.42c-.028 7.89 0 20.8 0 28.7 1.85 17.4 25.2 12.8 25.2 11.1V59.8c-8.65 4.32-12.9.576-12.9-1.83v-26.8h12.9v-10.1h-12.9V-.43l-12.2 8.58z"/><path d="m283 35-11.7 4.47c-1.83-11.8-22.2-13.1-22.3 7.02s20.6 17.8 22.3 7.02l11.3 4.28c-5.88 20.9-46 22.5-46.2-11.3-.224-33.8 41.3-32.9 46.6-11.5zM194 0l-28.8 71.8h14l5.74-15.6h28l5.81 15.6h13.8L203.65 0zm4.89 19.1 9.69 26.2-19.5-.155zM157 17l-7.76 6.73c-17-10.9-43.5 6.34-28.7 27.1-6.24 5.03-6.21 16.6.233 20.5l-5.4 4.95c-.936 16.6 14.4 20.4 23.5 19.9 19 .804 22.9-11.1 22.8-16.7-.22-4.07.402-13.7-22.7-15.1-9.08-.778-16-2.8-11.1-8.25 14.3 6.93 37.3-2.84 28.4-25.2l7.35-6.16zm-19.5 12.6a8.72 9.43 0 0 1 8.72 9.43 8.72 9.43 0 0 1-8.72 9.43 8.72 9.43 0 0 1-8.72-9.43 8.72 9.43 0 0 1 8.72-9.43zm-9.21 44.5 16.9 2.62c4.97 1.39 4.88 3.07 4.71 4.74-.566 4.51-6.75 5.26-10.9 5.29-5.17-.294-12.5-1.37-13.4-8.29z"/><path fill="#030303" d="M90 0v11.3h12.9V0zm.3 21.2v50.7h12.3V21.2z"/><path d="M0 0v71.6h12.6V17.7l17.9 47.7h6.28V51L17.58 0zm73.6 0v71.6H61V17.7L43.1 65.4h-6.28V51l19.2-51z"/></svg>
