<svg width="341.34" height="103.3" version="1.1" viewBox="0 0 341.34 103.3" xmlns="http://www.w3.org/2000/svg"><g transform="translate(-82.335 -205.44)"><g fill="#030303"><path d="m178.88 282.88h13.12v-54.4h-13.12z"/><path d="m178.56 217.92h13.76v-12.16h-13.76z"/><path d="m396.8 228.48h-8.96v10.781h8.9811c-.0299 8.4595 0 22.357 0 30.817 1.9718 18.656 26.859 13.77 26.859 11.889l.00019-11.859c-9.2282 4.63-13.76.61746-13.76-1.9601v-28.788h13.76v-10.88h-13.76v-23.04l-13.004 9.2004z"/></g><g><path d="m82.335 205.84v76.838h13.45v-57.775l19.119 51.109h6.7v-15.464l-20.439-54.708zm78.538 0v76.838h-13.45v-57.775l-19.119 51.109h-6.7v-15.464l20.439-54.708z"/><path d="m384.09 243.35-12.467 4.7965c-1.9537-12.663-23.641-14.037-23.745 7.5309s21.941 19.142 23.745 7.5308l12.095 4.5856c-6.2705 22.387-49.053 24.125-49.292-12.16s44.017-35.311 49.664-12.283z"/><path d="m289.41 205.69-30.764 76.992h14.969l6.1192-16.705h29.855l6.2012 16.705h14.721l-30.846-76.992zm5.2109 20.51 10.338 28.117-20.842-.16602z"/><path d="m249.34 223.45-8.2754 7.2207c-18.151-11.712-46.363 6.7959-30.654 29.039-6.6609 5.3974-6.626 17.764.24805 21.977l-5.7617 5.3125c-.99799 17.829 15.387 21.92 25.088 21.357 20.245.86181 24.417-11.914 24.297-17.922-.23435-4.3666.42921-14.699-24.229-16.221-9.6828-.83449-17.107-3.0042-11.871-8.8496 15.265 7.4357 39.81-3.0424 30.252-26.975l7.8359-6.6074zm-20.76 13.566a9.2978 10.116 0 019.2969 10.115 9.2978 10.116 0 01-9.2969 10.117 9.2978 10.116 0 01-9.2969-10.117 9.2978 10.116 0 019.2969-10.115zm-9.8242 47.717 18.012 2.8066c5.3051 1.4942 5.2102 3.2888 5.0274 5.0879-.60327 4.8345-7.2001 5.6422-11.578 5.6719-5.5174-.3156-13.325-1.4672-14.326-8.8887z"/></g></g></svg>
