<svg fill="none" version="1.1" viewBox="0 0 20 20" xmlns="http://www.w3.org/2000/svg"><g id="b" clip-path="url(#a)" stroke="currentColor" stroke-linecap="round" stroke-linejoin="round" stroke-width="1.67"><path id="c" d="m12.5 15h-4.17"/><path d="m15 11.7h-6.67"/><path d="m3.33 18.3h13.3c.442 0 .866-.176 1.18-.488.313-.312.488-.736.488-1.18v-13.3c0-.442-.176-.866-.488-1.18-.312-.313-.736-.488-1.18-.488h-10c-.442 0-.866.176-1.18.488s-.488.736-.488 1.18v13.3c0 .442-.176.866-.488 1.18-.313.313-.736.488-1.18.488zc-.442 0-.866-.176-1.18-.488-.313-.312-.488-.736-.488-1.18v-7.5c0-.442.176-.866.488-1.18s.736-.488 1.18-.488h1.67"/><path d="m14.2 5h-5c-.46 0-.833.373-.833.833v1.67c0 .46.373.833.833.833h5c.46 0 .833-.373.833-.833v-1.67c0-.46-.373-.833-.833-.833z"/></g><defs><clipPath id="a"><rect width="20" height="20" fill="#fff"/></clipPath></defs></svg>
