<?xml version="1.0" encoding="UTF-8"?>
<!-- Generator: Adobe Illustrator 27.8.1, SVG Export Plug-In . SVG Version: 6.00 Build 0)  -->
<svg xmlns="http://www.w3.org/2000/svg" xmlns:xlink="http://www.w3.org/1999/xlink" version="1.1" id="Layer_1" x="0px" y="0px" viewBox="0 0 50 50" style="enable-background:new 0 0 50 50;" xml:space="preserve">
<style type="text/css">
	.st0{fill:#FEC724;}
	.st1{fill:#FF6E01;}
</style>
<g>
	<path class="st0" d="M5.6,24.3V7.8h4l4.6,12.3h-0.5l4.6-12.3h4v16.5h-2.7V11l0.2,0l-4.6,11.8h-2.7L8.1,11l0.3,0v13.3H5.6z"></path>
	<path class="st0" d="M25.8,24.3V7.8h2.7v16.5H25.8z"></path>
	<path class="st0" d="M38.9,24.6c-1.5,0-2.8-0.4-4-1.1c-1.2-0.7-2.1-1.7-2.7-3c-0.6-1.3-1-2.8-1-4.5c0-1.7,0.3-3.2,1-4.5   c0.7-1.3,1.6-2.3,2.7-3c1.2-0.7,2.5-1.1,4.1-1.1c1.7,0,3.2,0.4,4.5,1.3s2.2,2,2.7,3.6l-2.6,0.9c-0.4-1-1-1.8-1.8-2.3   C41.1,10.3,40.2,10,39,10c-1,0-1.9,0.2-2.7,0.7c-0.8,0.5-1.3,1.2-1.8,2.1C34.2,13.7,34,14.8,34,16c0,1.2,0.2,2.3,0.6,3.2   c0.4,0.9,1,1.6,1.8,2.1C37.1,21.8,38,22,39,22c0.5,0,1.1-0.1,1.6-0.2c0.6-0.1,1.1-0.4,1.5-0.8c0.5-0.4,0.9-0.9,1.1-1.5   c0.3-0.7,0.4-1.5,0.4-2.5v-1l0.6,1.9h-4.7v-2.4h6.5v8.9h-2.4l-0.4-2.9l0.5,0.4c-0.3,0.6-0.7,1.2-1.2,1.6c-0.5,0.4-1.1,0.7-1.7,0.9   C40.3,24.5,39.6,24.6,38.9,24.6z"></path>
	<path class="st1" d="M4.2,42.2l6.5-16.5h2.1l6.5,16.5h-3l-4.6-12.5L7.2,42.2H4.2z M8.3,38.8l0.9-2.4h5.3l0.9,2.4H8.3z"></path>
	<path class="st1" d="M26.2,42.6c-1.5,0-2.9-0.4-4.1-1.1c-1.2-0.7-2.1-1.7-2.7-3c-0.7-1.3-1-2.8-1-4.5c0-1.7,0.3-3.2,1-4.5   c0.7-1.3,1.6-2.3,2.7-3c1.2-0.7,2.5-1.1,4.1-1.1c1.7,0,3.2,0.4,4.5,1.3c1.3,0.9,2.2,2,2.7,3.6l-2.6,0.9c-0.4-1-1-1.8-1.8-2.3   c-0.8-0.6-1.7-0.8-2.9-0.8c-1,0-1.9,0.2-2.7,0.7c-0.8,0.5-1.3,1.2-1.8,2.1c-0.4,0.9-0.6,1.9-0.6,3.2c0,1.2,0.2,2.3,0.6,3.2   c0.4,0.9,1,1.6,1.8,2.1c0.8,0.5,1.7,0.7,2.7,0.7c1.1,0,2.1-0.3,2.9-0.8c0.8-0.6,1.4-1.3,1.8-2.3l2.6,0.9c-0.6,1.5-1.5,2.7-2.7,3.5   C29.4,42.1,28,42.6,26.2,42.6z"></path>
	<path class="st1" d="M38.2,42.2V28.2h-5.3v-2.4h13.3v2.4H41v14.1H38.2z"></path>
</g>
</svg>
