<?xml version="1.0"?>
<svg xmlns="http://www.w3.org/2000/svg" xmlns:xlink="http://www.w3.org/1999/xlink" version="1.1" viewBox="0 0 761 335">
  <defs>
    <symbol id="a">
      <circle cx="7.78" cy="7.78" r="7.78" fill="#00A8E0"/>
    </symbol>
  </defs>
  <g transform="translate(87.7 87.7)">
    <g fill="#000">
      <path d="m267 84.2h-2.93v-15.8h-.056l-6.27 7.87h-.475l-6.26-7.87h-.0613v15.8h-2.93v-20.3h2.74l6.75 8.35 6.77-8.35h2.71v20.3"/>
      <path d="m276 84.2h-2.93v-20.3h2.93v20.3"/>
      <path d="m301 84.2h-2.51l-13.6-15.7v15.7h-2.74v-20.3h2.33l13.8 15.8v-15.8h2.75v20.3"/>
      <path d="m310 84.2h-2.92v-20.3h2.92v20.3"/>
      <path d="m325 68.3c-1.74-1.64-3.41-2.12-4.78-2.12-1.89 0-3.23.989-3.23 2.42 0 3.91 8.8 3.85 8.8 10.3 0 3.19-2.42 5.52-5.7 5.52-2.21 0-4-.591-5.7-1.88v-3.7c1.49 1.91 3.37 2.95 5.37 2.95 2.27 0 3.31-1.43 3.31-2.56 0-4.21-8.8-4.69-8.8-10.3 0-3.31 2.45-5.43 6.18-5.43 1.55 0 3.1.478 4.53 1.44v3.31"/>
      <path d="m346 66.5h-7.04v17.7h-2.93v-17.7h-7.04v-2.62h17v2.62"/>
      <path d="m362 66.5h-8.62v6.15h8.32v2.62h-8.32v6.33h8.89v2.63h-11.8v-20.3h11.5v2.62"/>
      <path d="m370 72.7h1.88c3.13 0 4.03-1.61 4-3.31-.0267-1.91-1.16-3.07-4-3.07h-1.88zm2.21-8.88c4.11 0 6.69 2.17 6.69 5.69 0 2.36-1.23 4.12-3.41 4.99 1.85 1.22 2.98 3.1 4.54 5.64.863 1.4 1.37 2.09 2.77 4.03h-3.49l-2.69-4.18c-2.68-4.18-3.91-4.65-5.4-4.65h-1.23v8.83h-2.92v-20.3h5.13"/>
      <path d="m396 68.3c-1.73-1.64-3.4-2.12-4.77-2.12-1.88 0-3.22.989-3.22 2.42 0 3.91 8.8 3.85 8.8 10.3 0 3.19-2.42 5.52-5.71 5.52-2.2 0-3.99-.591-5.7-1.88v-3.7c1.5 1.91 3.38 2.95 5.38 2.95 2.27 0 3.31-1.43 3.31-2.56 0-4.21-8.8-4.69-8.8-10.3 0-3.31 2.45-5.43 6.18-5.43 1.54 0 3.1.478 4.53 1.44v3.31"/>
      <path d="m417 66.5h-7.03v17.7h-2.93v-17.7h-7.04v-2.62h17v2.62"/>
      <path d="m428 84.4h-.596l-8.8-20.5h2.92l6.11 14.3 6.09-14.3h2.9l-8.63 20.5"/>
      <path d="m449 81.8c4.57 0 7.93-3.31 7.93-7.76 0-4.48-3.37-7.75-7.93-7.75-4.54 0-7.91 3.28-7.91 7.75 0 4.45 3.37 7.76 7.91 7.76zm0-18.2c6.71 0 11 4.78 11 10.4 0 5.49-4.12 10.4-11 10.4-6.65 0-10.9-4.92-10.9-10.4 0-5.64 4.32-10.4 10.9-10.4"/>
      <path d="m482 84.4h-.592l-8.8-20.5h2.92l6.12 14.3 6.09-14.3h2.89l-8.63 20.5"/>
      <path d="m514 84.2h-2.51l-13.6-15.7v15.7h-2.74v-20.3h2.33l13.8 15.8v-15.8h2.75v20.3"/>
      <path d="m523 84.2h-2.92v-20.3h2.92v20.3"/>
      <path d="m544 66.5h-7.03v17.7h-2.93v-17.7h-7.04v-2.62h17v2.62"/>
      <path d="m551 72.7h1.88c3.13 0 4.03-1.61 3.99-3.31-.024-1.91-1.16-3.07-3.99-3.07h-1.88zm2.21-8.88c4.11 0 6.69 2.17 6.69 5.69 0 2.36-1.23 4.12-3.41 4.99 1.85 1.22 2.98 3.1 4.54 5.64.86 1.4 1.37 2.09 2.77 4.03h-3.49l-2.69-4.18c-2.68-4.18-3.91-4.65-5.4-4.65h-1.23v8.83h-2.93v-20.3h5.14"/>
      <path d="m572 75.6h6.33l-3.29-7.37zm13.2 8.62h-2.98l-2.72-6h-8.65l-2.57 6h-2.98l8.74-20.5h2.06l9.1 20.5"/>
      <path d="m257 98.7-3.58-3.49h1.79l3.42 1.88 3.44-1.88h1.79l-3.58 3.49zm8.74 5.52c-2.51-1.46-4.65-2.12-7.01-2.12-4.66 0-8.12 3.31-8.12 7.79 0 4.56 3.34 7.72 8.24 7.72 2.3 0 4.8-.802 7.1-2.3v3.19c-2.01 1.04-4.18 1.79-7.37 1.79-7.64 0-11-5.88-11-10.1 0-6.2 4.69-10.7 11.2-10.7 2.09 0 4.21.508 6.98 1.67v3.14"/>
      <path d="m282 102h-8.62v6.15h8.32v2.62h-8.32v6.33h8.89v2.62h-11.8v-20.3h11.5v2.63"/>
      <path d="m297 104c-1.73-1.64-3.4-2.12-4.77-2.12-1.88 0-3.22.989-3.22 2.42 0 3.9 8.8 3.85 8.8 10.3 0 3.2-2.42 5.52-5.7 5.52-2.21 0-4-.596-5.7-1.88v-3.7c1.5 1.91 3.37 2.96 5.37 2.96 2.27 0 3.31-1.43 3.31-2.57 0-4.21-8.8-4.68-8.8-10.3 0-3.31 2.45-5.43 6.17-5.43 1.56 0 3.1.479 4.54 1.44v3.31"/>
      <path d="m320 120h-4.03l-10.4-10.1v10.1h-2.93v-20.3h2.93v9.31l8.56-9.31h3.65l-8.87 9.64 11 10.7"/>
      <path d="m334 95.2-3.85 3.49h-1.76l2.24-3.49zm1.4 7.1h-8.63v6.15h8.32v2.62h-8.32v6.33h8.89v2.62h-11.8v-20.3h11.6v2.63"/>
      <path d="m357 109h1.88c3.13 0 4.03-1.62 4-3.32-.028-1.91-1.16-3.07-4-3.07h-1.88zm2.21-8.9c4.12 0 6.69 2.18 6.69 5.7 0 2.36-1.22 4.12-3.4 4.98 1.85 1.23 2.98 3.1 4.54 5.64.861 1.41 1.37 2.09 2.77 4.03h-3.49l-2.69-4.18c-2.68-4.18-3.9-4.66-5.4-4.66h-1.22v8.83h-2.93v-20.3h5.13"/>
      <path d="m385 102h-8.62v6.15h8.32v2.62h-8.32v6.33h8.89v2.62h-11.8v-20.3h11.5v2.63"/>
      <path d="m393 109h3.31c2.18 0 3.59-1.16 3.59-3.19 0-1.49-.811-3.1-3.47-3.1h-3.43zm3.43-8.92c4.45 0 6.47 2.63 6.47 5.85 0 3.19-2.15 5.7-6.86 5.7h-3.05v8.8h-2.92v-20.3h6.35"/>
      <path d="m424 112c0 4.98-2.98 8.27-9.04 8.27-4.3 0-8.47-2.42-8.47-7.96v-12.7h2.92v12c0 2.3.304 3.25 1.23 4.18 1.17 1.17 2.63 1.73 4.39 1.73 2.24 0 3.85-.713 4.77-1.64 1.05-1.05 1.28-2.54 1.28-4.45v-11.8h2.92v12.4"/>
      <path d="m432 117h3.67c3.44 0 4.36-1.71 4.36-3.23 0-1.85-1.43-3.16-4.51-3.16h-3.52zm0-9.02h1.94c2.89 0 4.3-1.07 4.3-3.25 0-1.52-.868-2.83-3.55-2.83h-2.69zm-2.92-8.71h5.91c4.38 0 6.27 2.63 6.27 5.19 0 2.12-.987 3.49-3.1 4.35v.0609c3.04.563 4.89 2.57 4.89 5.31 0 2.51-1.87 5.43-6.98 5.43h-6.98v-20.3"/>
      <path d="m451 117h9.19v2.62h-12.1v-20.3h2.92v17.7"/>
      <path d="m467 120h-2.93v-20.3h2.93v20.3"/>
      <path d="m490 120h-4.02l-10.4-10.1v10.1h-2.92v-20.3h2.92v9.31l8.57-9.31h3.63l-8.87 9.64 11 10.7"/>
      <path d="m506 99.7h3.52l-7.55 9.61v10.7h-2.93v-10.8l-7.55-9.58h3.52l5.46 7.01 5.52-7.01"/>
    </g>
    <use xlink:href="#a"/>
    <use transform="translate(192)" xlink:href="#a"/>
    <use transform="translate(0 24)" xlink:href="#a"/>
    <use transform="translate(24 24)" xlink:href="#a"/>
    <use transform="translate(168 24)" xlink:href="#a"/>
    <use transform="translate(192 24)" xlink:href="#a"/>
    <use transform="translate(0 48)" xlink:href="#a"/>
    <use transform="translate(24 48)" xlink:href="#a"/>
    <use transform="translate(48 48)" xlink:href="#a"/>
    <use transform="translate(144 48)" xlink:href="#a"/>
    <use transform="translate(168 48)" xlink:href="#a"/>
    <use transform="translate(192 48)" xlink:href="#a"/>
    <use transform="translate(0 72)" xlink:href="#a"/>
    <use transform="translate(24 72)" xlink:href="#a"/>
    <use transform="translate(48 72)" xlink:href="#a"/>
    <use transform="translate(72 72)" xlink:href="#a"/>
    <use transform="translate(120 72)" xlink:href="#a"/>
    <use transform="translate(144 72)" xlink:href="#a"/>
    <use transform="translate(168 72)" xlink:href="#a"/>
    <use transform="translate(192 72)" xlink:href="#a"/>
    <use transform="translate(0 96)" xlink:href="#a"/>
    <use transform="translate(24 96)" xlink:href="#a"/>
    <use transform="translate(48 96)" xlink:href="#a"/>
    <use transform="translate(72 96)" xlink:href="#a"/>
    <use transform="translate(96 96)" xlink:href="#a"/>
    <use transform="translate(120 96)" xlink:href="#a"/>
    <use transform="translate(144 96)" xlink:href="#a"/>
    <use transform="translate(168 96)" xlink:href="#a"/>
    <use transform="translate(192 96)" xlink:href="#a"/>
    <use transform="translate(0 120)" xlink:href="#a"/>
    <use transform="translate(24 120)" xlink:href="#a"/>
    <use transform="translate(48 120)" xlink:href="#a"/>
    <use transform="translate(72 120)" xlink:href="#a"/>
    <use transform="translate(96 120)" xlink:href="#a"/>
    <use transform="translate(120 120)" xlink:href="#a"/>
    <use transform="translate(144 120)" xlink:href="#a"/>
    <use transform="translate(168 120)" xlink:href="#a"/>
    <use transform="translate(192 120)" xlink:href="#a"/>
    <use transform="translate(0 144)" xlink:href="#a"/>
    <use transform="translate(24 144)" xlink:href="#a"/>
    <use transform="translate(48 144)" xlink:href="#a"/>
    <use transform="translate(72 144)" xlink:href="#a"/>
    <use transform="translate(96 144)" xlink:href="#a"/>
    <use transform="translate(120 144)" xlink:href="#a"/>
    <use transform="translate(144 144)" xlink:href="#a"/>
    <use transform="translate(168 144)" xlink:href="#a"/>
    <use transform="translate(192 144)" xlink:href="#a"/>
  </g>
</svg>
