<svg version="1.1" viewBox="0 0 300 300" xmlns="http://www.w3.org/2000/svg" xmlns:xlink="http://www.w3.org/1999/xlink"><defs><symbol id="a"><path d="m8.09 0 1.9 5.86 6.19.02-4.99 3.62 1.9 5.89-4.99-3.63-5.01 3.63 1.9-5.87-4.99-3.64h6.17z" fill="#fc0" stroke-width="35.1"/></symbol></defs><path d="m27.6 27.5h245v166h-245v-166" fill="#fff"/><path d="m32.6 32.1h235v157h-235v-157" fill="#2a3c93"/><path d="m82.2 233v-8.51h8.4v-3.4h-8.4v-4.74h9.7v-3.4h-13.8v20zm26.2 0v-14.5h-3.84v6.13c0 2.1-.1 3.42-.28 3.95-.2.53-.56.98-1.1 1.34-.5.36-1.09.53-1.76.53-.56 0-1.03-.14-1.42-.39a2.06 2.06 0 01-.77-1.12 18.1 18.1 0 01-.22-3.75v-6.69h-3.84v9.22c0 1.36.17 2.45.53 3.22.34.78.9 1.39 1.69 1.81.78.42 1.65.64 2.62.64.96 0 1.9-.22 2.72-.7a5.48 5.48 0 002.11-1.84v2.18zm17.2-9.01c0-1.13-.1-1.99-.22-2.58-.14-.61-.4-1.14-.76-1.63a4 4 0 00-1.6-1.17 5.68 5.68 0 00-2.32-.45c-1.93 0-3.55.81-4.82 2.44v-2.13h-3.56v14.5h3.84v-6.58c0-1.62.11-2.71.32-3.32.18-.6.54-1.07 1.1-1.44a3.1 3.1 0 011.77-.56 2.17 2.17 0 012.16 1.47c.17.43.25 1.48.25 3.04v7.4h3.84zm17.2-11h-3.83v7.21a5.49 5.49 0 00-4.24-2.01c-1.76 0-3.21.64-4.39 1.94-1.15 1.28-1.75 3.14-1.75 5.62 0 2.4.6 4.28 1.8 5.63a5.58 5.58 0 004.28 2.01c.85 0 1.66-.19 2.47-.6a5.97 5.97 0 002.1-1.88v2.12h3.56zm-9.33 9.23a2.92 2.92 0 012.3-1.1c.92 0 1.68.38 2.3 1.1.59.77.9 1.97.9 3.64 0 1.49-.31 2.64-.94 3.4a2.8 2.8 0 01-2.26 1.12c-1.1 0-1.96-.5-2.58-1.52-.42-.7-.64-1.81-.64-3.39 0-1.42.3-2.52.92-3.25zm20.6 7.78c-.4.35-.92.52-1.5.52-.9 0-1.62-.32-2.22-.96a3.98 3.98 0 01-.92-2.65h9.61c.05-2.96-.53-5.13-1.8-6.56a6.42 6.42 0 00-5.09-2.16c-1.94 0-3.53.67-4.8 2.05-1.25 1.37-1.87 3.25-1.87 5.65 0 2.02.48 3.7 1.44 5.02 1.23 1.65 3.07 2.48 5.59 2.48a6.9 6.9 0 004-1.1 6.4 6.4 0 002.33-3.21l-3.83-.64c-.2.73-.52 1.26-.94 1.56zm-4.58-5.45c0-1.06.29-1.88.82-2.49a2.6 2.6 0 012.06-.93c.78 0 1.45.28 1.98.87.57.6.85 1.42.88 2.55zm26-11.6h-3.83v7.21a5.49 5.49 0 00-4.23-2.01c-1.77 0-3.22.64-4.4 1.94-1.15 1.28-1.74 3.14-1.74 5.62 0 2.4.6 4.28 1.8 5.63a5.58 5.58 0 004.28 2.01c.84 0 1.65-.19 2.47-.6a5.97 5.97 0 002.09-1.88v2.12h3.56zm-9.33 9.23a2.92 2.92 0 012.3-1.1c.92 0 1.69.38 2.3 1.1.6.77.9 1.97.9 3.64 0 1.49-.3 2.64-.93 3.4a2.8 2.8 0 01-2.27 1.12c-1.1 0-1.95-.5-2.58-1.52-.42-.7-.64-1.81-.64-3.39 0-1.42.32-2.52.92-3.25zm24.3 10.8v-2.12a6.06 6.06 0 002.06 1.84c.81.42 1.66.64 2.47.64 1.69 0 3.14-.67 4.31-2.01 1.17-1.35 1.77-3.25 1.77-5.74 0-2.4-.6-4.23-1.74-5.51a5.65 5.65 0 00-4.39-1.94 5.4 5.4 0 00-4.2 2.01v-7.21h-3.84v20zm1.14-10.8a3 3 0 012.3-1.06c.95 0 1.71.37 2.32 1.09.6.77.9 1.97.9 3.61 0 1.58-.3 2.72-.9 3.45-.59.72-1.3 1.1-2.18 1.1-1.1 0-1.99-.5-2.66-1.55-.47-.72-.7-1.84-.7-3.36 0-1.45.3-2.55.92-3.28zm16.3 10.9a5.81 5.81 0 01-1.01 2.02c-.43.53-1.1.78-1.99.78a9.3 9.3 0 01-1.62-.17l.33 3c.7.14 1.43.22 2.18.22.74 0 1.38-.08 1.97-.22.58-.17 1.06-.4 1.49-.64.39-.28.71-.64 1.03-1.1.3-.45.64-1.09.98-1.93l.92-2.55 5.13-14h-3.99l-3.39 10.3-3.5-10.3h-4.07zm-184 19v-5.16l-3.83 2.27v2.89h-1.76v3.05h1.76v6.36c0 1.37.03 2.26.11 2.71.11.64.28 1.14.56 1.52.25.36.64.67 1.2.89.57.25 1.18.36 1.88.36 1.13 0 2.13-.19 3.02-.58l-.3-2.97c-.7.25-1.2.36-1.58.36a.98.98 0 01-.64-.2c-.17-.11-.31-.27-.33-.47-.06-.2-.09-.89-.09-2.1v-5.88h2.64v-3.05zm5.26-5.52v20h3.85v-7.28c0-1.2.1-2.13.36-2.75a2.6 2.6 0 011.09-1.4c.5-.3 1.1-.48 1.73-.48.57 0 1.05.13 1.4.38.4.25.65.56.8.97.13.4.2 1.37.2 2.89v7.67h3.85v-8.52c0-1.3-.06-2.26-.2-2.87a4.97 4.97 0 00-.75-1.72c-.36-.5-.9-.92-1.6-1.23a5.7 5.7 0 00-6.9 1.72v-7.43zm24.6 17c-.4.34-.92.51-1.5.51-.9 0-1.63-.3-2.22-.95a3.98 3.98 0 01-.92-2.65h9.6c.05-2.96-.52-5.13-1.79-6.57a6.42 6.42 0 00-5.1-2.15c-1.93 0-3.52.67-4.79 2.04-1.25 1.38-1.88 3.25-1.88 5.66 0 2.02.49 3.7 1.44 5.02 1.24 1.65 3.08 2.48 5.6 2.48a6.9 6.9 0 004-1.1 6.4 6.4 0 002.32-3.21l-3.82-.64c-.2.73-.52 1.26-.94 1.56zm-4.58-5.45c0-1.07.28-1.88.81-2.49a2.6 2.6 0 012.07-.94c.78 0 1.45.29 1.98.88.56.6.84 1.42.87 2.55zm35.7 8.48v-3.39h-11.2v-5.42h10v-3.4h-10v-4.45h10.8v-3.39h-14.8v20zm16.6 0v-14.5h-3.83v6.12c0 2.11-.1 3.43-.28 3.96-.2.53-.56.98-1.1 1.34-.5.36-1.09.53-1.76.53-.56 0-1.03-.14-1.42-.39a2.06 2.06 0 01-.77-1.12 18.1 18.1 0 01-.22-3.75v-6.7h-3.84v9.23c0 1.36.17 2.45.53 3.22.34.78.9 1.39 1.69 1.8.78.43 1.65.65 2.62.65.96 0 1.9-.22 2.72-.7a5.48 5.48 0 002.11-1.85v2.19zm7.62-4.48c0-2.46.1-4.08.3-4.88a3.3 3.3 0 01.9-1.6c.36-.29.85-.43 1.38-.43.54 0 1.14.19 1.8.6l1.18-3.32a4.86 4.86 0 00-2.55-.73c-.6 0-1.17.14-1.64.45-.48.31-1.04.95-1.65 1.94v-2.08h-3.57v14.5h3.85zm7.28 1.3a6.08 6.08 0 002.73 2.65c1.2.6 2.47.89 3.82.89a7.37 7.37 0 007.47-7.64c0-2.19-.7-3.97-2.1-5.4a7.31 7.31 0 00-5.4-2.16c-1.43 0-2.72.3-3.86.95a6.28 6.28 0 00-2.66 2.75 7.42 7.42 0 00-.95 3.69c0 1.68.3 3.08.95 4.26zm4.03-7.38a3.33 3.33 0 015.03 0c.67.8 1.02 1.87 1.02 3.31 0 1.45-.35 2.55-1.02 3.33a3.3 3.3 0 01-2.51 1.15 3.2 3.2 0 01-2.52-1.15c-.7-.78-1.05-1.88-1.05-3.33 0-1.44.35-2.52 1.05-3.31zm12.9 16.1h3.83v-7.29c.73.79 1.4 1.35 2.08 1.66a5.49 5.49 0 006.47-1.55c1.2-1.34 1.8-3.25 1.8-5.65 0-2.38-.6-4.22-1.77-5.55a5.58 5.58 0 00-6.96-1.31 5.64 5.64 0 00-1.87 1.76v-2.12h-3.58zm4.7-16.2c.61-.73 1.4-1.1 2.33-1.1.92 0 1.67.37 2.27 1.12.6.73.92 1.89.92 3.39 0 1.65-.31 2.83-.9 3.56-.59.7-1.32 1.06-2.21 1.06-.92 0-1.7-.39-2.36-1.17-.64-.78-.97-2-.97-3.64 0-1.44.3-2.5.92-3.22zm20 7.69c-.4.34-.92.51-1.5.51-.9 0-1.63-.3-2.22-.95a3.98 3.98 0 01-.92-2.65h9.6c.05-2.96-.52-5.13-1.79-6.57a6.42 6.42 0 00-5.1-2.15c-1.93 0-3.52.67-4.79 2.04-1.25 1.38-1.87 3.25-1.87 5.66 0 2.02.48 3.7 1.43 5.02 1.24 1.65 3.08 2.48 5.6 2.48a6.9 6.9 0 004-1.1 6.4 6.4 0 002.32-3.21l-3.82-.64c-.2.73-.52 1.26-.94 1.56zm-4.58-5.45c0-1.07.28-1.88.81-2.49a2.6 2.6 0 012.07-.94c.78 0 1.45.29 1.98.88.56.6.84 1.42.88 2.55zm16.5-3c.39-.29.92-.43 1.62-.43 1 0 1.67.18 2.05.49.36.31.56.84.56 1.6v.38c-.7.28-1.94.63-3.73.96-1.35.25-2.35.53-3.05.89-.7.34-1.27.8-1.66 1.47a4.1 4.1 0 00-.58 2.2 4 4 0 001.29 3.08c.86.8 2.04 1.2 3.53 1.2a6.13 6.13 0 004.47-1.92c.03.08.09.22.14.44.14.51.26.87.37 1.12h3.8a8.8 8.8 0 01-.67-1.95 13.9 13.9 0 01-.2-2.82l.06-4.46c0-1.7-.16-2.83-.5-3.46a3.97 3.97 0 00-1.79-1.53c-.84-.42-2.1-.62-3.8-.62-1.91 0-3.34.34-4.29 1.04a5.39 5.39 0 00-2.01 3.13l3.46.62c.22-.67.57-1.18.93-1.43zm4.23 5.3c0 .91-.06 1.54-.14 1.87-.17.5-.45.92-.94 1.28-.64.45-1.28.67-1.98.67-.61 0-1.11-.19-1.53-.58-.4-.39-.6-.87-.6-1.4s.25-.97.75-1.35a7.27 7.27 0 012.11-.67c1.06-.22 1.81-.42 2.33-.58zm20.8-2.84c0-1.12-.1-1.98-.22-2.57-.14-.61-.4-1.14-.77-1.63a4 4 0 00-1.6-1.17 5.68 5.68 0 00-2.32-.45c-1.92 0-3.55.8-4.81 2.43v-2.12h-3.56v14.5h3.84v-6.58c0-1.62.1-2.72.31-3.33.19-.59.55-1.06 1.1-1.43a3.1 3.1 0 011.78-.57c.53 0 .98.14 1.34.4.4.26.64.62.81 1.07.18.44.25 1.49.25 3.05v7.39h3.85zm11.7-.34c0 2.28.14 3.95.39 5.11a5.74 5.74 0 003.47 3.94c.98.45 2.44.67 4.34.67 1.56 0 2.86-.19 3.83-.61.98-.39 1.77-.95 2.36-1.62.6-.7 1-1.55 1.2-2.52.22-1.02.33-2.69.33-5.13v-10.5h-4.05v11.1c0 1.6-.06 2.73-.17 3.4-.1.68-.48 1.27-1.06 1.74-.56.48-1.44.7-2.55.7a4.3 4.3 0 01-2.67-.75 3.17 3.17 0 01-1.22-1.97c-.1-.5-.14-1.62-.14-3.36v-10.9h-4.06zm33.4.34c0-1.12-.08-1.98-.21-2.57-.14-.61-.4-1.14-.77-1.63a4 4 0 00-1.59-1.17 5.68 5.68 0 00-2.33-.45c-1.92 0-3.54.8-4.81 2.43v-2.12h-3.56v14.5h3.84v-6.58c0-1.62.11-2.72.31-3.33a3.1 3.1 0 012.88-2c.53 0 .98.14 1.34.4.4.26.64.62.82 1.07.17.44.25 1.49.25 3.05v7.39h3.84zm7.74-7.46v-3.57h-3.85v3.57zm0 16.5v-14.5h-3.85v14.5zm4-3.19a6.08 6.08 0 002.73 2.66c1.2.6 2.47.89 3.81.89a7.37 7.37 0 007.47-7.64c0-2.19-.69-3.97-2.1-5.4a7.31 7.31 0 00-5.4-2.16c-1.42 0-2.72.3-3.86.95a6.28 6.28 0 00-2.65 2.75 7.42 7.42 0 00-.96 3.69c0 1.68.3 3.08.96 4.26zm4.03-7.37a3.33 3.33 0 015.03 0c.67.8 1.01 1.87 1.01 3.31 0 1.45-.34 2.55-1.01 3.33a3.3 3.3 0 01-2.52 1.15 3.2 3.2 0 01-2.51-1.15c-.7-.78-1.05-1.88-1.05-3.33 0-1.44.34-2.52 1.05-3.31zm26.2 1.54c0-1.12-.09-1.98-.22-2.57-.14-.61-.4-1.14-.76-1.63a4 4 0 00-1.6-1.17 5.68 5.68 0 00-2.32-.45c-1.92 0-3.55.8-4.82 2.43v-2.12h-3.56v14.5h3.85v-6.58c0-1.62.1-2.72.3-3.33a3.1 3.1 0 012.88-2c.53 0 .99.14 1.35.4.39.26.64.62.81 1.07.17.44.25 1.49.25 3.05v7.39h3.84z" fill="#2a3c93" aria-label="Funded by the European Union"/><use transform="translate(142 50.8)" xlink:href="#a"/><use transform="translate(116 56.3)" xlink:href="#a"/><use transform="translate(97.5 77.9)" xlink:href="#a"/><use transform="translate(90.7 102)" xlink:href="#a"/><use transform="translate(97.5 126)" xlink:href="#a"/><use transform="translate(116 148)" xlink:href="#a"/><use transform="translate(142 153)" xlink:href="#a"/><use transform="translate(168 148)" xlink:href="#a"/><use transform="translate(186 126)" xlink:href="#a"/><use transform="translate(193 102)" xlink:href="#a"/><use transform="translate(186 77.9)" xlink:href="#a"/><use transform="translate(168 56.3)" xlink:href="#a"/></svg>
