<svg xmlns="http://www.w3.org/2000/svg" xml:space="preserve" width="782.018" height="219.315" viewBox="0 0 782.018 219.315"><path d="M180.152 3.874v215.417h-14.428L43.27 88.496v126.945H0V.024h14.1l122.783 130.145V3.874zM228.508 3.874h142.328v39.107h-99.059v42.957h72.768v36.861h-72.768v53.535h102.908v39.107H228.508zM508 .024c40.062 0 74.364 19.554 93.284 52.573l-32.707 23.082C553.523 51.955 533.32 40.093 508 40.093c-39.436 0-68.277 29.491-68.277 69.881s28.841 69.247 68.277 69.247c25.32 0 45.523-11.862 60.578-35.586l32.707 23.082c-18.278 33.02-52.894 52.573-93.613 52.573-61.861 1.275-113.8-49.052-112.517-109.637C394.2 49.068 446.452-1.259 508 .024M633.52 3.874h148.499v39.107H633.52zM634.32 93.702h109.224v33.92H634.32zM635.12 176.419h146.898v39.107H635.12z"/></svg>