<svg xmlns="http://www.w3.org/2000/svg" width="149" height="36" fill="none" viewBox="0 0 149 36"><path fill="#e9edef" fill-rule="evenodd" d="M13.381 14.334a2.4 2.4 0 0 0-1.498 1.16l-.29.509v2.91c0 2.663.015 2.936.175 3.232.33.614.598.884 1.143 1.155.513.254.617.271 1.666.274 1.475.004 2.036-.225 2.664-1.083.409-.559.37-.665-.377-1.038-.746-.372-.81-.384-.881-.16-.03.09-.177.297-.328.461-.267.29-.297.299-1.035.299-.74 0-.769-.009-1.078-.315l-.317-.314v-2.461c0-2.752.032-2.913.61-3.153.391-.162 1.222-.168 1.535-.012.128.064.334.272.458.46.124.19.28.345.348.345.23 0 1.338-.594 1.338-.717 0-.476-.885-1.332-1.593-1.54-.594-.175-1.906-.181-2.54-.012m6.32.168c-.024.063-.033 2.09-.02 4.502l.024 4.388.816.027.816.026v-9.059h-.796c-.55 0-.809.036-.84.116m3.502-.093c0 .013.622 2.04 1.38 4.503l1.38 4.48.648.027.65.026 1.335-4.343a783 783 0 0 0 1.384-4.53c.047-.177.006-.186-.847-.186-.493 0-.897.024-.897.053 0 .139-1.517 5.636-1.571 5.694-.035.036-.374-1.045-.755-2.402a570 570 0 0 0-.822-2.906l-.129-.439h-.879c-.483 0-.878.01-.877.023m8.878 4.48.024 4.503.816.027.816.026v-9.059h-1.68zm4.733.02v4.53h5.407V21.96h-3.727l-.024-3.764-.024-3.764-.816-.027-.816-.026zM49.215 14.137c-1.305.482-1.968 1.553-1.79 2.888.142 1.06.665 1.612 2.387 2.525 1.408.745 1.628.92 1.711 1.362.144.76-.407 1.283-1.35 1.283-.692 0-1.042-.168-1.287-.618-.103-.19-.222-.345-.265-.345-.206 0-1.434.694-1.434.81 0 .271.665 1.078 1.12 1.357.44.272.537.291 1.618.322 1.451.04 1.964-.106 2.609-.745.526-.522.737-1.109.715-1.992-.033-1.329-.727-2.15-2.526-2.99-1.261-.59-1.591-.855-1.591-1.278 0-.76.51-1.204 1.307-1.136.489.042.644.153 1.04.743l.159.238.74-.36c.407-.199.74-.407.74-.463 0-.359-.752-1.185-1.361-1.497-.447-.228-2.03-.293-2.542-.104m8.102.01c-.795.254-1.398.831-1.656 1.586-.145.422-.154 5.78-.01 6.291.15.537.665 1.141 1.208 1.418.45.23.575.246 1.85.246 1.273 0 1.398-.016 1.848-.246.554-.282 1.064-.889 1.215-1.444.066-.244.093-1.441.075-3.295-.025-2.632-.046-2.948-.212-3.28-.251-.5-.698-.924-1.224-1.162-.565-.253-2.444-.324-3.094-.115m8.731.005c-.564.18-1.098.622-1.434 1.188l-.267.45v3.083c0 3.422.007 3.468.684 4.138.556.551.94.673 2.23.71 1.278.036 1.737-.051 2.31-.438.369-.249.95-1.013.95-1.25 0-.07-.334-.29-.742-.489-.719-.349-.744-.354-.85-.17-.06.105-.248.333-.416.506-.294.303-.337.315-1.055.315-.722 0-.76-.011-1.08-.327l-.33-.327v-5.314l.284-.315c.279-.309.297-.314 1.126-.314.909 0 .952.022 1.423.725l.159.238.74-.36c.407-.199.74-.407.74-.463 0-.358-.748-1.182-1.36-1.499-.459-.237-2.465-.293-3.112-.087m6.56.07c-.026.068-.037 2.204-.023 4.747l.026 4.623.851.028.852.028-.026-4.748-.025-4.747-.803-.028c-.588-.02-.817.005-.852.096m4.762.003c-.025.067-.035 2.201-.021 4.744l.025 4.623 2.795.026 2.795.025v-1.54l-1.92-.026-1.92-.026v-2.408l1.604-.048 1.605-.048.028-.744.028-.744-1.632-.027-1.633-.026-.027-1.132-.027-1.132h3.894v-1.638h-2.773c-2.13 0-2.785.029-2.82.121m7.344.697v.82h1.945v7.906l.85-.028.851-.028.025-3.921.026-3.922.947-.027.947-.028v-1.54l-2.796-.026-2.795-.026zm6.866-.74c-.026.043.55 1.18 1.282 2.529l1.331 2.45.049 2.216.049 2.215h1.652l.049-2.215.048-2.215 1.289-2.381c.708-1.31 1.288-2.448 1.288-2.529 0-.122-.16-.147-.93-.147h-.932l-.772 1.59c-.424.873-.814 1.588-.866 1.588s-.442-.715-.866-1.589l-.772-1.59h-.925c-.51 0-.947.036-.974.079M59.623 15.69c.54.276.592.56.592 3.176 0 2.629-.05 2.912-.57 3.179-.38.193-1.482.2-1.852.01-.56-.286-.607-.562-.574-3.322l.03-2.494.244-.259c.133-.142.33-.295.437-.338.326-.134 1.398-.103 1.693.048" clip-rule="evenodd"/><path fill="#e9edef" fill-rule="evenodd" d="m10.765.413-.392.22.904.833.903.832-6.175.034-3.9.034-.018 22.513-.017 8.797h6.362l.196.427c.107.235.31.552.449.705l.272.279s.427.507 1.457.507 1.53-.508 1.53-.508l.279-.285c.538-.552.778-1.328.63-2.038-.107-.517-.28-.845-.657-1.244-.441-.467-.922-.682-1.605-.716-.444-.022-.624 0-.932.116-.726.271-1.225.757-1.465 1.427l-.116.323H3.155V3.406h9.086l-.677.622-.946.866-.27.245.457.223.457.224 1.37-1.358 1.372-1.358-1.355-1.344C11.904.788 11.264.186 11.226.188s-.245.103-.46.225m.568 31.554c.85.352 1.11 1.425.502 2.07-.718.762-1.924.482-2.25-.522-.066-.207-.067-.337-.001-.627.176-.78 1.018-1.223 1.749-.92M113.439 14.062c-.964.185-1.597.598-1.987 1.296l-.287.513v3.068c0 2.975.006 3.08.212 3.461.117.216.375.535.574.708.624.543.915.62 2.318.623 1.218.003 1.285-.008 1.839-.287.69-.349 1.135-.939 1.3-1.725.072-.344.099-1.434.079-3.14-.031-2.517-.04-2.629-.259-3.066-.268-.535-.757-.987-1.348-1.246-.424-.186-1.898-.31-2.441-.205m-9.945 4.854.025 4.722.626.029c.344.016.726.004.847-.026l.221-.055V19.66h3.201l-.028-.791-.028-.791-1.573-.027-1.572-.026v-2.297h3.871v-1.534h-5.615zm16.55-.008.025 4.73h1.549l.048-1.966.048-1.965h1.62l.69 1.965.691 1.966.813.028c.448.015.855-.013.906-.063.057-.057-.185-.88-.651-2.215l-.743-2.125.434-.379c.239-.208.53-.574.648-.814.183-.376.207-.553.17-1.27-.049-.964-.251-1.442-.814-1.933-.674-.586-.836-.618-3.256-.656l-2.203-.034zm8.901-.76c.031 4.371.009 4.21.678 4.872.528.524 1.054.7 2.218.743 1.265.048 1.892-.108 2.495-.62.234-.198.524-.574.65-.842.227-.483.228-.496.229-4.296l.001-3.812h-1.637l-.028 3.69-.029 3.69-.316.313c-.308.305-.34.314-1.136.314s-.827-.01-1.135-.314l-.316-.313-.028-3.69-.027-3.69h-1.647zm9.146-3.894c-.038.037-.068 2.152-.068 4.7v4.632l.22.055c.122.03.503.042.847.026l.626-.03-.023-2.924c-.012-1.608 0-2.88.027-2.828.028.052.41 1.066.849 2.253l.799 2.157.493.029.493.029.435-1.18.851-2.306c.228-.62.426-1.116.44-1.102s-.004 1.312-.04 2.885c-.048 2.118-.036 2.885.047 2.953.062.05.432.079.823.063l.71-.028.025-4.726.025-4.726-.791.027-.791.028-1.075 2.895c-.591 1.592-1.101 2.92-1.133 2.952-.031.03-.31-.625-.619-1.457s-.805-2.16-1.102-2.951l-.539-1.439-.731-.027c-.401-.016-.761.002-.798.04m-22.693 1.657.316.28.028 2.593c.033 2.91.003 3.073-.612 3.327-.42.174-1.216.175-1.633.003-.632-.262-.638-.293-.638-3.206v-2.625l.329-.326c.32-.317.35-.325 1.111-.325.728 0 .805.02 1.099.28m8.591-.016c.724.359.862 1.317.269 1.865-.295.273-.301.274-1.42.248l-1.124-.027-.027-1c-.016-.55-.006-1.058.021-1.127.079-.204 1.85-.172 2.281.041" clip-rule="evenodd"/></svg>